<svg width="100" height="176" viewBox="0 0 100 176" fill="none" xmlns="http://www.w3.org/2000/svg">
<path d="M39.52 75.7932L37.3975 1.38387L56.6775 0C56.6775 0 59.8069 78.5476 58.1605 78.1085C56.5142 77.6694 39.52 75.7932 39.52 75.7932Z" fill="#3E3147"/>
<path d="M3.20557 97.5084L4.03553 21.2495C8.19904 20.9967 88.4487 19.879 91.5509 22.354C94.6531 24.8289 92.6394 99.1717 92.6394 99.1717C86.5166 101.593 3.77703 102.698 3.20557 97.4951V97.5084Z" fill="#EEEBD5"/>
<path d="M13.8796 175.697L33.6426 119.744C30.4043 119.744 0.851569 119.265 0.293713 117.535C-0.264142 115.792 0.144065 99.2255 0.144065 99.2255L97.5239 99.1323C98.8164 103.736 99.3199 117.535 99.3199 117.535L64.3519 118.6L95 173.462C91.1222 173.821 69.1754 174.766 69.1754 174.766L49.6571 120.941L41.6499 175.644C32.0439 175.351 13.866 175.684 13.866 175.684L13.8796 175.697Z" fill="#3E3147"/>
<path d="M57.2494 35.5145C63.6444 48.7411 37.7381 59.1999 50.4872 61.4088C63.2362 63.6176 78.067 46.2927 84.2034 59.812C89.4826 71.4285 80.7066 85.5066 70.1617 91.2151C48.419 103.005 62.828 79.5054 62.828 79.5054C62.828 79.5054 75.5771 65.3874 61.1817 69.1265C46.7862 72.8656 37.6836 82.007 34.7991 75.5135C27.8327 59.8386 55.2902 44.9754 44.8678 44.8423C34.4454 44.7092 5.43688 56.8181 10.0766 49.5528C14.7027 42.2875 50.8545 22.2747 57.2494 35.5012V35.5145Z" fill="#C35041"/>
<path d="M30.0914 120.37C29.7241 120.37 29.4247 120.09 29.4111 119.731C29.4111 119.358 29.6969 119.052 30.0643 119.039L69.0053 117.802C69.3319 117.748 69.6993 118.081 69.7129 118.44C69.7129 118.813 69.4271 119.119 69.0597 119.132L30.1187 120.37C30.1187 120.37 30.1051 120.37 30.0914 120.37Z" fill="#261D2A"/>
<path d="M74.9941 157.799C74.722 157.799 74.477 157.639 74.3682 157.387L65.0479 135.205C64.9119 134.859 65.0751 134.473 65.4153 134.34C65.7554 134.207 66.1636 134.366 66.2997 134.699L75.6199 156.881C75.756 157.227 75.5928 157.613 75.2526 157.746C75.171 157.786 75.0757 157.799 74.9941 157.799Z" fill="#FCFDFF"/>
<path d="M80.7503 169.323C80.4782 169.323 80.2197 169.164 80.1108 168.898L77.3351 161.925C77.199 161.579 77.376 161.193 77.7161 161.06C78.0563 160.927 78.4644 161.1 78.6005 161.433L81.3762 168.405C81.5123 168.751 81.3353 169.137 80.9952 169.27C80.9135 169.297 80.8319 169.31 80.7503 169.31V169.323Z" fill="#FCFDFF"/>
<path d="M53.6708 15.7139C53.317 15.7139 53.0177 15.4477 52.9905 15.0885L52.1742 2.76676C52.1469 2.39418 52.4326 2.08814 52.8136 2.06152C53.2082 2.06152 53.5076 2.31434 53.5348 2.68692L54.3511 15.0086C54.3783 15.3812 54.0926 15.6873 53.7117 15.7139C53.6981 15.7139 53.6844 15.7139 53.6708 15.7139Z" fill="#FCFDFF"/>
<path d="M68.4743 103.444H41.8742C41.4932 103.444 41.1938 103.151 41.1938 102.779C41.1938 102.406 41.4932 102.113 41.8742 102.113H68.4743C68.8553 102.113 69.1547 102.406 69.1547 102.779C69.1547 103.151 68.8553 103.444 68.4743 103.444Z" fill="#FCFDFF"/>
<path d="M80.543 103.444H73.1412C72.7603 103.444 72.4609 103.151 72.4609 102.779C72.4609 102.406 72.7603 102.113 73.1412 102.113H80.543C80.924 102.113 81.2234 102.406 81.2234 102.779C81.2234 103.151 80.924 103.444 80.543 103.444Z" fill="#FCFDFF"/>
</svg>
