<svg width="405" height="408" viewBox="0 0 405 408" fill="none" xmlns="http://www.w3.org/2000/svg">
<g clip-path="url(#clip0_4045_2480)">
<rect width="405" height="408" rx="64" fill="#E3562B"/>
<path d="M458.449 126.859L220 110.636C238.09 57.5126 285.082 -47.0386 345.062 -39.121C405.042 -31.2033 450.076 78.3302 458.449 126.859Z" fill="#FFB4E0"/>
<path d="M497.449 203.859L259 187.636C277.09 134.513 324.082 29.9614 384.062 37.879C444.042 45.7967 489.076 155.33 497.449 203.859Z" fill="#FEBBE2"/>
<path d="M167 103.5C167 107.552 161.387 111.039 160.623 114.858C159.826 118.81 163.679 124.157 162.184 127.81C160.657 131.53 154.147 132.56 151.922 135.848C149.697 139.169 151.191 145.578 148.402 148.401C145.579 151.224 139.169 149.697 135.848 151.922C132.56 154.114 131.497 160.623 127.811 162.184C124.157 163.679 118.844 159.859 114.858 160.623C111.006 161.387 107.552 167 103.5 167C99.4482 167 95.961 161.387 92.1417 160.623C88.1896 159.826 82.8426 163.679 79.1893 162.184C75.4697 160.656 74.4401 154.147 71.1522 151.922C67.8311 149.697 61.4213 151.191 58.5983 148.401C55.7754 145.578 57.3031 139.169 55.0779 135.848C52.886 132.56 46.3766 131.497 44.8156 127.81C43.3211 124.157 47.1404 118.843 46.3766 114.858C45.6127 111.006 40 107.552 40 103.5C40 99.4481 45.6127 95.9609 46.3766 92.1416C47.1736 88.1895 43.3211 82.8425 44.8156 79.1892C46.3434 75.4696 52.8528 74.44 55.0779 71.1521C57.3031 67.831 55.8086 61.4212 58.5983 58.5983C61.4213 55.7753 67.8311 57.303 71.1522 55.0779C74.4401 52.8859 75.5029 46.3766 79.1893 44.8156C82.8426 43.3211 88.1564 47.1404 92.1417 46.3765C95.9942 45.6127 99.4482 40 103.5 40C107.552 40 111.039 45.6127 114.858 46.3765C118.81 47.1736 124.157 43.3211 127.811 44.8156C131.53 46.3433 132.56 52.8527 135.848 55.0779C139.169 57.303 145.579 55.8085 148.402 58.5983C151.225 61.4212 149.697 67.831 151.922 71.1521C154.114 74.44 160.623 75.5028 162.184 79.1892C163.679 82.8425 159.86 88.1563 160.623 92.1416C161.387 95.9941 167 99.4481 167 103.5Z" fill="white" fill-opacity="0.2"/>
<path d="M130.892 117.579L134.293 114.482" stroke="white" stroke-width="1.38619" stroke-miterlimit="10" stroke-linecap="round"/>
<path d="M123.207 124.579L126.607 121.482" stroke="white" stroke-width="1.38619" stroke-miterlimit="10" stroke-linecap="round"/>
<path d="M126.607 117.579L123.207 114.482" stroke="white" stroke-width="1.38619" stroke-miterlimit="10" stroke-linecap="round"/>
<path d="M134.293 124.579L130.892 121.482" stroke="white" stroke-width="1.38619" stroke-miterlimit="10" stroke-linecap="round"/>
<path d="M78.9196 63.3692L82.2939 60.2961" stroke="white" stroke-width="1.37545" stroke-miterlimit="10" stroke-linecap="round"/>
<path d="M71.2946 70.314L74.6689 67.241" stroke="white" stroke-width="1.37545" stroke-miterlimit="10" stroke-linecap="round"/>
<path d="M74.6689 63.3692L71.2946 60.2961" stroke="white" stroke-width="1.37545" stroke-miterlimit="10" stroke-linecap="round"/>
<path d="M82.2939 70.314L78.9196 67.241" stroke="white" stroke-width="1.37545" stroke-miterlimit="10" stroke-linecap="round"/>
</g>
<defs>
<clipPath id="clip0_4045_2480">
<rect width="405" height="408" rx="64" fill="white"/>
</clipPath>
</defs>
</svg>
