<svg width="405" height="408" viewBox="0 0 405 408" fill="none" xmlns="http://www.w3.org/2000/svg">
<g clip-path="url(#clip0_4048_2482)">
<rect width="405" height="408" rx="64" fill="#CE6EC8"/>
<path d="M167 103.5C167 107.552 161.387 111.039 160.623 114.858C159.826 118.81 163.679 124.157 162.184 127.811C160.657 131.53 154.147 132.56 151.922 135.848C149.697 139.169 151.191 145.579 148.402 148.402C145.579 151.225 139.169 149.697 135.848 151.922C132.56 154.114 131.497 160.623 127.811 162.184C124.157 163.679 118.844 159.86 114.858 160.623C111.006 161.387 107.552 167 103.5 167C99.4482 167 95.961 161.387 92.1417 160.623C88.1896 159.826 82.8426 163.679 79.1893 162.184C75.4697 160.657 74.4401 154.147 71.1522 151.922C67.8311 149.697 61.4213 151.191 58.5983 148.402C55.7754 145.579 57.3031 139.169 55.0779 135.848C52.886 132.56 46.3766 131.497 44.8156 127.811C43.3211 124.157 47.1404 118.844 46.3766 114.858C45.6127 111.006 40 107.552 40 103.5C40 99.4482 45.6127 95.961 46.3766 92.1417C47.1736 88.1896 43.3211 82.8426 44.8156 79.1893C46.3434 75.4697 52.8528 74.4401 55.0779 71.1522C57.3031 67.8311 55.8086 61.4213 58.5983 58.5983C61.4213 55.7754 67.8311 57.3031 71.1522 55.0779C74.4401 52.886 75.5029 46.3766 79.1893 44.8156C82.8426 43.3211 88.1564 47.1404 92.1417 46.3766C95.9942 45.6127 99.4482 40 103.5 40C107.552 40 111.039 45.6127 114.858 46.3766C118.81 47.1736 124.157 43.3211 127.811 44.8156C131.53 46.3434 132.56 52.8528 135.848 55.0779C139.169 57.3031 145.579 55.8086 148.402 58.5983C151.225 61.4213 149.697 67.8311 151.922 71.1522C154.114 74.4401 160.623 75.5029 162.184 79.1893C163.679 82.8426 159.86 88.1564 160.623 92.1417C161.387 95.9942 167 99.4482 167 103.5Z" fill="white" fill-opacity="0.7"/>
<path d="M130.401 66.847L127 63.75" stroke="#19223F" stroke-width="2.17224" stroke-miterlimit="10" stroke-linecap="round"/>
<path d="M138.086 73.8461L134.686 70.749" stroke="#19223F" stroke-width="2.17224" stroke-miterlimit="10" stroke-linecap="round"/>
<path d="M130.401 70.749L127 73.8461" stroke="#19223F" stroke-width="2.17224" stroke-miterlimit="10" stroke-linecap="round"/>
<path d="M138.086 63.75L134.686 66.847" stroke="#19223F" stroke-width="2.17224" stroke-miterlimit="10" stroke-linecap="round"/>
<path d="M70.8753 114.18L67.501 111.107" stroke="#19223F" stroke-width="2.15541" stroke-miterlimit="10" stroke-linecap="round"/>
<path d="M78.5013 121.125L75.127 118.052" stroke="#19223F" stroke-width="2.15541" stroke-miterlimit="10" stroke-linecap="round"/>
<path d="M70.8753 118.052L67.501 121.125" stroke="#19223F" stroke-width="2.15541" stroke-miterlimit="10" stroke-linecap="round"/>
<path d="M78.5013 111.107L75.127 114.18" stroke="#19223F" stroke-width="2.15541" stroke-miterlimit="10" stroke-linecap="round"/>
<path d="M298.242 29.5834C301.689 29.5834 304.484 27.0384 304.484 23.8989C304.484 20.7594 301.689 18.2144 298.242 18.2144C294.795 18.2144 292 20.7594 292 23.8989C292 27.0384 294.795 29.5834 298.242 29.5834Z" fill="white" fill-opacity="0.7"/>
<path d="M325.527 29.5834C328.974 29.5834 331.769 27.0384 331.769 23.8989C331.769 20.7594 328.974 18.2144 325.527 18.2144C322.08 18.2144 319.285 20.7594 319.285 23.8989C319.285 27.0384 322.08 29.5834 325.527 29.5834Z" fill="white" fill-opacity="0.7"/>
<path d="M352.81 29.5834C356.258 29.5834 359.052 27.0384 359.052 23.8989C359.052 20.7594 356.258 18.2144 352.81 18.2144C349.363 18.2144 346.568 20.7594 346.568 23.8989C346.568 27.0384 349.363 29.5834 352.81 29.5834Z" fill="white" fill-opacity="0.7"/>
<path d="M380.142 29.5834C383.589 29.5834 386.384 27.0384 386.384 23.8989C386.384 20.7594 383.589 18.2144 380.142 18.2144C376.695 18.2144 373.9 20.7594 373.9 23.8989C373.9 27.0384 376.695 29.5834 380.142 29.5834Z" fill="white" fill-opacity="0.7"/>
<path d="M407.427 29.5834C410.875 29.5834 413.669 27.0384 413.669 23.8989C413.669 20.7594 410.875 18.2144 407.427 18.2144C403.98 18.2144 401.186 20.7594 401.186 23.8989C401.186 27.0384 403.98 29.5834 407.427 29.5834Z" fill="white" fill-opacity="0.7"/>
<path d="M298.242 50.0595C301.689 50.0595 304.484 47.5144 304.484 44.375C304.484 41.2355 301.689 38.6904 298.242 38.6904C294.795 38.6904 292 41.2355 292 44.375C292 47.5144 294.795 50.0595 298.242 50.0595Z" fill="white" fill-opacity="0.7"/>
<path d="M325.527 50.0595C328.974 50.0595 331.769 47.5144 331.769 44.375C331.769 41.2355 328.974 38.6904 325.527 38.6904C322.08 38.6904 319.285 41.2355 319.285 44.375C319.285 47.5144 322.08 50.0595 325.527 50.0595Z" fill="white" fill-opacity="0.7"/>
<path d="M352.81 50.0595C356.258 50.0595 359.052 47.5144 359.052 44.375C359.052 41.2355 356.258 38.6904 352.81 38.6904C349.363 38.6904 346.568 41.2355 346.568 44.375C346.568 47.5144 349.363 50.0595 352.81 50.0595Z" fill="white" fill-opacity="0.7"/>
<path d="M380.142 50.0595C383.589 50.0595 386.384 47.5144 386.384 44.375C386.384 41.2355 383.589 38.6904 380.142 38.6904C376.695 38.6904 373.9 41.2355 373.9 44.375C373.9 47.5144 376.695 50.0595 380.142 50.0595Z" fill="white" fill-opacity="0.7"/>
<path d="M407.427 50.0595C410.875 50.0595 413.669 47.5144 413.669 44.375C413.669 41.2355 410.875 38.6904 407.427 38.6904C403.98 38.6904 401.186 41.2355 401.186 44.375C401.186 47.5144 403.98 50.0595 407.427 50.0595Z" fill="white" fill-opacity="0.7"/>
<path d="M298.242 70.5358C301.689 70.5358 304.484 67.9907 304.484 64.8513C304.484 61.7118 301.689 59.1667 298.242 59.1667C294.795 59.1667 292 61.7118 292 64.8513C292 67.9907 294.795 70.5358 298.242 70.5358Z" fill="white" fill-opacity="0.7"/>
<path d="M325.527 70.536C328.974 70.536 331.769 67.991 331.769 64.8515C331.769 61.712 328.974 59.167 325.527 59.167C322.08 59.167 319.285 61.712 319.285 64.8515C319.285 67.991 322.08 70.536 325.527 70.536Z" fill="white" fill-opacity="0.7"/>
<path d="M352.81 70.5358C356.258 70.5358 359.052 67.9907 359.052 64.8513C359.052 61.7118 356.258 59.1667 352.81 59.1667C349.363 59.1667 346.568 61.7118 346.568 64.8513C346.568 67.9907 349.363 70.5358 352.81 70.5358Z" fill="white" fill-opacity="0.7"/>
<path d="M380.142 70.536C383.589 70.536 386.384 67.991 386.384 64.8515C386.384 61.712 383.589 59.167 380.142 59.167C376.695 59.167 373.9 61.712 373.9 64.8515C373.9 67.991 376.695 70.536 380.142 70.536Z" fill="white" fill-opacity="0.7"/>
<path d="M407.427 70.536C410.875 70.536 413.669 67.991 413.669 64.8515C413.669 61.712 410.875 59.167 407.427 59.167C403.98 59.167 401.186 61.712 401.186 64.8515C401.186 67.991 403.98 70.536 407.427 70.536Z" fill="white" fill-opacity="0.7"/>
<path d="M298.242 91.0121C301.689 91.0121 304.484 88.4671 304.484 85.3276C304.484 82.1881 301.689 79.6431 298.242 79.6431C294.795 79.6431 292 82.1881 292 85.3276C292 88.4671 294.795 91.0121 298.242 91.0121Z" fill="white" fill-opacity="0.7"/>
<path d="M325.527 91.0119C328.974 91.0119 331.769 88.4668 331.769 85.3273C331.769 82.1879 328.974 79.6428 325.527 79.6428C322.08 79.6428 319.285 82.1879 319.285 85.3273C319.285 88.4668 322.08 91.0119 325.527 91.0119Z" fill="white" fill-opacity="0.7"/>
<path d="M352.81 91.0121C356.258 91.0121 359.052 88.4671 359.052 85.3276C359.052 82.1881 356.258 79.6431 352.81 79.6431C349.363 79.6431 346.568 82.1881 346.568 85.3276C346.568 88.4671 349.363 91.0121 352.81 91.0121Z" fill="white" fill-opacity="0.7"/>
<path d="M380.142 91.0119C383.589 91.0119 386.384 88.4668 386.384 85.3273C386.384 82.1879 383.589 79.6428 380.142 79.6428C376.695 79.6428 373.9 82.1879 373.9 85.3273C373.9 88.4668 376.695 91.0119 380.142 91.0119Z" fill="white" fill-opacity="0.7"/>
<path d="M407.427 91.0119C410.875 91.0119 413.669 88.4668 413.669 85.3273C413.669 82.1879 410.875 79.6428 407.427 79.6428C403.98 79.6428 401.186 82.1879 401.186 85.3273C401.186 88.4668 403.98 91.0119 407.427 91.0119Z" fill="white" fill-opacity="0.7"/>
<path d="M298.242 111.488C301.689 111.488 304.484 108.943 304.484 105.804C304.484 102.664 301.689 100.119 298.242 100.119C294.795 100.119 292 102.664 292 105.804C292 108.943 294.795 111.488 298.242 111.488Z" fill="white" fill-opacity="0.7"/>
<path d="M325.527 111.488C328.974 111.488 331.769 108.943 331.769 105.804C331.769 102.664 328.974 100.119 325.527 100.119C322.08 100.119 319.285 102.664 319.285 105.804C319.285 108.943 322.08 111.488 325.527 111.488Z" fill="white" fill-opacity="0.7"/>
<path d="M352.81 111.488C356.258 111.488 359.052 108.943 359.052 105.804C359.052 102.664 356.258 100.119 352.81 100.119C349.363 100.119 346.568 102.664 346.568 105.804C346.568 108.943 349.363 111.488 352.81 111.488Z" fill="white" fill-opacity="0.7"/>
<path d="M380.142 111.488C383.589 111.488 386.384 108.943 386.384 105.804C386.384 102.664 383.589 100.119 380.142 100.119C376.695 100.119 373.9 102.664 373.9 105.804C373.9 108.943 376.695 111.488 380.142 111.488Z" fill="white" fill-opacity="0.7"/>
<path d="M407.427 111.488C410.875 111.488 413.669 108.943 413.669 105.804C413.669 102.664 410.875 100.119 407.427 100.119C403.98 100.119 401.186 102.664 401.186 105.804C401.186 108.943 403.98 111.488 407.427 111.488Z" fill="white" fill-opacity="0.7"/>
<path d="M298.242 131.964C301.689 131.964 304.484 129.419 304.484 126.28C304.484 123.14 301.689 120.595 298.242 120.595C294.795 120.595 292 123.14 292 126.28C292 129.419 294.795 131.964 298.242 131.964Z" fill="white" fill-opacity="0.7"/>
<path d="M325.527 131.964C328.974 131.964 331.769 129.419 331.769 126.28C331.769 123.14 328.974 120.595 325.527 120.595C322.08 120.595 319.285 123.14 319.285 126.28C319.285 129.419 322.08 131.964 325.527 131.964Z" fill="white" fill-opacity="0.7"/>
<path d="M352.81 131.964C356.258 131.964 359.052 129.419 359.052 126.28C359.052 123.14 356.258 120.595 352.81 120.595C349.363 120.595 346.568 123.14 346.568 126.28C346.568 129.419 349.363 131.964 352.81 131.964Z" fill="white" fill-opacity="0.7"/>
<path d="M380.142 131.964C383.589 131.964 386.384 129.419 386.384 126.28C386.384 123.14 383.589 120.595 380.142 120.595C376.695 120.595 373.9 123.14 373.9 126.28C373.9 129.419 376.695 131.964 380.142 131.964Z" fill="white" fill-opacity="0.7"/>
<path d="M407.427 131.964C410.875 131.964 413.669 129.419 413.669 126.28C413.669 123.14 410.875 120.595 407.427 120.595C403.98 120.595 401.186 123.14 401.186 126.28C401.186 129.419 403.98 131.964 407.427 131.964Z" fill="white" fill-opacity="0.7"/>
<path d="M298.242 152.441C301.689 152.441 304.484 149.896 304.484 146.756C304.484 143.617 301.689 141.072 298.242 141.072C294.795 141.072 292 143.617 292 146.756C292 149.896 294.795 152.441 298.242 152.441Z" fill="white" fill-opacity="0.7"/>
<path d="M325.527 152.44C328.974 152.44 331.769 149.895 331.769 146.756C331.769 143.616 328.974 141.071 325.527 141.071C322.08 141.071 319.285 143.616 319.285 146.756C319.285 149.895 322.08 152.44 325.527 152.44Z" fill="white" fill-opacity="0.7"/>
<path d="M352.81 152.441C356.258 152.441 359.052 149.896 359.052 146.756C359.052 143.617 356.258 141.072 352.81 141.072C349.363 141.072 346.568 143.617 346.568 146.756C346.568 149.896 349.363 152.441 352.81 152.441Z" fill="white" fill-opacity="0.7"/>
<path d="M380.142 152.44C383.589 152.44 386.384 149.895 386.384 146.756C386.384 143.616 383.589 141.071 380.142 141.071C376.695 141.071 373.9 143.616 373.9 146.756C373.9 149.895 376.695 152.44 380.142 152.44Z" fill="white" fill-opacity="0.7"/>
<path d="M407.427 152.44C410.875 152.44 413.669 149.895 413.669 146.756C413.669 143.616 410.875 141.071 407.427 141.071C403.98 141.071 401.186 143.616 401.186 146.756C401.186 149.895 403.98 152.44 407.427 152.44Z" fill="white" fill-opacity="0.7"/>
</g>
<defs>
<clipPath id="clip0_4048_2482">
<rect width="405" height="408" rx="64" fill="white"/>
</clipPath>
</defs>
</svg>
