<svg width="405" height="408" viewBox="0 0 405 408" fill="none" xmlns="http://www.w3.org/2000/svg">
<g clip-path="url(#clip0_4048_2481)">
<rect width="405" height="408" rx="64" fill="#8A98C6"/>
<path d="M485.415 -116.249L435.526 -10.8648L554.856 75.1995L408.148 88.7355L398.816 183.377L345.011 111.636L222.044 166.554L288.314 64.75L173.461 32.6096L259.571 -14.4944L199.26 -82.2886L309.026 -64.1738L321.41 -150.4L375.978 -76.5551L485.415 -116.249Z" fill="#F0D3EE"/>
<path d="M167 103.5C167 107.552 161.387 111.039 160.623 114.858C159.826 118.81 163.679 124.157 162.184 127.811C160.657 131.53 154.147 132.56 151.922 135.848C149.697 139.169 151.191 145.579 148.402 148.402C145.579 151.225 139.169 149.697 135.848 151.922C132.56 154.114 131.497 160.623 127.811 162.184C124.157 163.679 118.844 159.86 114.858 160.623C111.006 161.387 107.552 167 103.5 167C99.4482 167 95.961 161.387 92.1417 160.623C88.1896 159.826 82.8426 163.679 79.1893 162.184C75.4697 160.657 74.4401 154.147 71.1522 151.922C67.8311 149.697 61.4213 151.191 58.5983 148.402C55.7754 145.579 57.3031 139.169 55.0779 135.848C52.886 132.56 46.3766 131.497 44.8156 127.811C43.3211 124.157 47.1404 118.844 46.3766 114.858C45.6127 111.006 40 107.552 40 103.5C40 99.4482 45.6127 95.961 46.3766 92.1417C47.1736 88.1896 43.3211 82.8426 44.8156 79.1893C46.3434 75.4697 52.8528 74.4401 55.0779 71.1522C57.3031 67.8311 55.8086 61.4213 58.5983 58.5983C61.4213 55.7754 67.8311 57.3031 71.1522 55.0779C74.4401 52.886 75.5029 46.3766 79.1893 44.8156C82.8426 43.3211 88.1564 47.1404 92.1417 46.3766C95.9942 45.6127 99.4482 40 103.5 40C107.552 40 111.039 45.6127 114.858 46.3766C118.81 47.1736 124.157 43.3211 127.811 44.8156C131.53 46.3434 132.56 52.8528 135.848 55.0779C139.169 57.3031 145.579 55.8086 148.402 58.5983C151.225 61.4213 149.697 67.8311 151.922 71.1522C154.114 74.4401 160.623 75.5029 162.184 79.1893C163.679 82.8426 159.86 88.1564 160.623 92.1417C161.387 95.9942 167 99.4482 167 103.5Z" fill="white" fill-opacity="0.6"/>
<path d="M130.401 118.758L127 115.661" stroke="#19223F" stroke-width="2.17224" stroke-miterlimit="10" stroke-linecap="round"/>
<path d="M138.086 125.757L134.686 122.66" stroke="#19223F" stroke-width="2.17224" stroke-miterlimit="10" stroke-linecap="round"/>
<path d="M130.401 122.66L127 125.757" stroke="#19223F" stroke-width="2.17224" stroke-miterlimit="10" stroke-linecap="round"/>
<path d="M138.086 115.661L134.686 118.758" stroke="#19223F" stroke-width="2.17224" stroke-miterlimit="10" stroke-linecap="round"/>
<path d="M70.8753 72.2874L67.501 69.2144" stroke="#19223F" stroke-width="2.15541" stroke-miterlimit="10" stroke-linecap="round"/>
<path d="M78.5013 79.2322L75.127 76.1592" stroke="#19223F" stroke-width="2.15541" stroke-miterlimit="10" stroke-linecap="round"/>
<path d="M70.8753 76.1592L67.501 79.2322" stroke="#19223F" stroke-width="2.15541" stroke-miterlimit="10" stroke-linecap="round"/>
<path d="M78.5013 69.2144L75.127 72.2874" stroke="#19223F" stroke-width="2.15541" stroke-miterlimit="10" stroke-linecap="round"/>
</g>
<defs>
<clipPath id="clip0_4048_2481">
<rect width="405" height="408" rx="64" fill="white"/>
</clipPath>
</defs>
</svg>
