<svg width="1920" height="1059" viewBox="0 0 1920 1059" fill="none" xmlns="http://www.w3.org/2000/svg">
<path d="M2170.12 1137.58L-105.5 1219C-105.5 1219 -644.956 -232.301 73.1964 290.124C791.349 812.549 2091.9 132.943 2091.9 132.943L2170.12 1137.58Z" fill="#FFB300"/>
<path d="M-119.845 782.266L-99.6335 864.391C-52.6035 863.787 49.1733 856.777 85.9755 893.059C122.778 929.341 53.1462 1028.04 12.9883 1065.42L55.7614 1150.74C64.1569 1146.52 98.5771 1115.91 169.094 1027.29C257.241 916.521 187.871 811.568 121.26 788.662C76.7806 773.367 -55.8447 770.986 -119.845 782.266Z" fill="#E3562B"/>
<path d="M-151.845 470.266L-131.633 552.391C-84.6035 551.787 17.1733 544.777 53.9755 581.059C90.7776 617.341 21.1462 716.043 -19.0117 753.423L23.7614 838.744C32.1569 834.517 66.5771 803.908 137.094 715.291C225.241 604.521 155.871 499.568 89.2604 476.662C44.7806 461.367 -87.8447 458.986 -151.845 470.266Z" fill="#E3562B"/>
</svg>
