<svg width="199" height="177" viewBox="0 0 199 177" fill="none" xmlns="http://www.w3.org/2000/svg">
<path d="M199 88.5C199 94.147 190.205 99.0071 189.008 104.33C187.759 109.838 193.796 117.29 191.454 122.382C189.06 127.566 178.861 129.001 175.374 133.583C171.887 138.212 174.229 147.145 169.858 151.08C165.434 155.014 155.391 152.885 150.187 155.986C145.035 159.041 143.37 168.113 137.593 170.288C131.869 172.371 123.542 167.048 117.298 168.113C111.261 169.178 105.849 177 99.5 177C93.1512 177 87.687 169.178 81.7024 168.113C75.5097 167.002 67.1313 172.371 61.4069 170.288C55.5785 168.159 53.9652 159.087 48.8133 155.986C43.6093 152.885 33.5656 154.968 29.1423 151.08C24.7189 147.145 27.1127 138.212 23.6261 133.583C20.1914 129.001 9.99163 127.52 7.54576 122.382C5.20397 117.29 11.1886 109.884 9.99164 104.33C8.79472 98.9608 0 94.147 0 88.5C0 82.853 8.79472 77.9929 9.99164 72.67C11.2406 67.1619 5.20397 59.7097 7.54576 54.6182C9.93959 49.4341 20.1394 47.9992 23.6261 43.4168C27.1127 38.7882 24.7709 29.8549 29.1423 25.9205C33.5656 21.9861 43.6093 24.1153 48.8133 21.0141C53.9652 17.9592 55.6305 8.88703 61.4069 6.71156C67.1313 4.62866 75.4576 9.95161 81.7024 8.88702C87.739 7.82243 93.1512 0 99.5 0C105.849 0 111.313 7.82243 117.298 8.88702C123.49 9.9979 131.869 4.62866 137.593 6.71156C143.422 8.84074 145.035 17.9129 150.187 21.0141C155.391 24.1153 165.434 22.0324 169.858 25.9205C174.281 29.8549 171.887 38.7882 175.374 43.4168C178.809 47.9992 189.008 49.4804 191.454 54.6182C193.796 59.7097 187.811 67.1156 189.008 72.67C190.205 78.0392 199 82.853 199 88.5Z" fill="#8A98C6"/>
<path d="M48.9771 66.5724C48.9771 66.5724 50.5945 143 52.9343 143C56.3575 143 141.578 142.199 141.578 142.199C142.191 138.053 138.454 59.2862 134.057 58.7837C129.66 58.2812 48.9771 66.5724 48.9771 66.5724Z" fill="#DEBC23"/>
<path d="M38 77.4707C38 77.4707 85.7219 6.96359 92.1916 12.287C98.6613 17.6103 164.065 73.0739 161.191 73.7962C158.317 74.5029 38 77.4707 38 77.4707Z" fill="#CA7A8C"/>
<path d="M138.924 69.7921L125.875 57.7164L132.878 52.079C133.224 51.812 133.271 51.3095 133.004 50.9797C132.737 50.6343 132.234 50.5871 131.905 50.8541L124.713 56.6329L112.182 45.044L117.191 41.1967C117.536 40.9298 117.599 40.4429 117.332 40.0975C117.065 39.752 116.578 39.6891 116.233 39.9561L111.019 43.9605L99.6504 33.4551L104.911 28.9483C105.241 28.6656 105.272 28.1631 104.989 27.8333C104.707 27.5035 104.204 27.4722 103.875 27.7548L98.4727 32.3873L87.3548 22.1173C87.0408 21.819 86.5383 21.8347 86.2399 22.1645C85.9416 22.4786 85.973 22.981 86.287 23.2794L97.2635 33.4236L85.8944 43.1596L77.1478 34.884C76.8337 34.5857 76.3312 34.6014 76.0329 34.9154C75.7345 35.2295 75.7502 35.7319 76.0643 36.0303L84.701 44.196L75.1692 52.3616L67.1763 44.196C66.8779 43.8819 66.3754 43.8819 66.0614 44.196C65.7473 44.4943 65.7473 44.9969 66.0614 45.3109L73.9757 53.3981L61.0835 64.4216L57.1263 59.6165C56.8593 59.2867 56.3568 59.2396 56.0271 59.5065C55.6973 59.7892 55.6502 60.276 55.9171 60.6058L59.9057 65.4424L52.9963 71.3468C52.6666 71.6294 52.6352 72.1319 52.9178 72.4616C53.0749 72.6501 53.2947 72.7286 53.5146 72.7286C53.703 72.7286 53.8757 72.6657 54.0328 72.5401L60.9107 66.6514L69.5789 77.1726C69.7359 77.361 69.9558 77.4552 70.1913 77.4552C70.364 77.4552 70.5368 77.3924 70.6938 77.2825C71.0236 76.9998 71.0707 76.513 70.8037 76.1833L62.1042 65.6465L75.0907 54.5287L84.6382 64.2803L76.5982 70.4517C76.2527 70.7186 76.1899 71.2054 76.4568 71.5509C76.6139 71.7551 76.8494 71.8649 77.085 71.8649C77.2577 71.8649 77.4147 71.8178 77.5561 71.7079L85.7374 65.4266L93.6204 73.4981C93.7774 73.6551 93.9816 73.7336 94.1857 73.7336C94.3898 73.7336 94.5783 73.6551 94.7353 73.5138C95.0494 73.2154 95.0494 72.7129 94.7353 72.3988L86.978 64.4688L97.5148 56.3659L110.187 68.3631L105.9 71.8021C105.555 72.0691 105.508 72.5716 105.775 72.9014C105.932 73.0898 106.152 73.1997 106.387 73.1997C106.56 73.1997 106.733 73.1369 106.874 73.027L111.334 69.4466L117.191 74.9899C117.348 75.1312 117.536 75.2097 117.725 75.2097C117.929 75.2097 118.133 75.1312 118.29 74.9585C118.588 74.6444 118.573 74.1419 118.259 73.8435L112.558 68.4573L124.618 58.7685L137.84 71.0012C137.997 71.1426 138.186 71.2054 138.374 71.2054C138.578 71.2054 138.798 71.1269 138.955 70.9542C139.254 70.6401 139.222 70.1376 138.908 69.8392L138.924 69.7921ZM98.4255 34.4914L109.732 44.9341L97.609 54.246L87.0408 44.2431L98.4255 34.4914ZM85.863 63.291L76.2684 53.4766L85.8473 45.2795L96.3527 55.2353L85.863 63.291ZM111.412 67.3268L98.7553 55.3453L110.894 46.0176L123.456 57.6379L111.412 67.311V67.3268Z" fill="#261D2A"/>
<path d="M130.617 95.5923C128.843 95.5923 126.895 94.7285 124.98 93.064C124.037 92.2475 123.127 91.2425 122.326 90.159C120.567 91.7764 117.568 93.2996 112.605 93.2211C108.931 93.1426 106.246 92.326 104.346 91.1326C103.121 91.8706 101.535 92.5772 99.5091 93.1897C94.3427 94.7757 89.5062 93.9906 86.4912 91.0855C84.0101 93.4096 80.4612 95.4823 76.6924 95.3253C73.3005 95.1996 70.6624 94.0534 68.8566 92.5144C67.5689 94.1319 65.8101 95.341 63.6588 95.341C57.7701 95.341 55.9329 90.2061 55.7915 87.4894C55.7601 87.0654 56.1056 86.6886 56.5296 86.6572C56.9536 86.6572 57.3304 86.9555 57.3619 87.3952C57.3619 87.6622 57.8015 93.7707 63.6588 93.7707C65.2919 93.7707 66.6895 92.7971 67.7573 91.4152C67.0507 90.5672 66.5639 89.6722 66.2969 88.7928C65.6688 86.6572 66.3755 84.6629 68.1656 83.4224C69.4533 82.543 70.2855 82.8884 70.6624 83.1711C71.903 84.1132 71.6203 86.6257 70.9451 88.6672C70.6624 89.5151 70.2698 90.3945 69.7673 91.2268C71.3533 92.6244 73.7559 93.6765 76.7552 93.7864C80.0686 93.8963 83.2563 92.0433 85.4705 89.9548C84.3712 88.4316 83.963 86.7043 84.4341 85.3695C84.8423 84.2075 85.8316 83.4852 87.2135 83.3124C88.6739 83.124 89.3491 83.6578 89.6789 84.1289C90.2442 84.9612 90.1029 86.2018 89.2549 87.725C88.8624 88.4316 88.297 89.2168 87.5904 90.002C88.8624 91.1797 92.5055 93.7236 99.0537 91.7293C100.64 91.2425 101.943 90.7086 102.995 90.1275C101.425 88.6828 100.703 86.9242 100.608 85.291C100.483 82.9984 101.613 81.1139 103.246 80.9098C105.539 80.5957 107.8 82.2289 108.303 84.5059C108.507 85.4167 108.664 87.8349 105.743 90.1904C107.376 91.0541 109.638 91.6193 112.637 91.6821C117.301 91.7921 119.955 90.316 121.431 88.8713C120.112 86.7357 119.311 84.4744 119.672 82.857C119.892 81.9148 120.504 81.2553 121.399 81.004C122.498 80.7057 123.519 81.004 124.194 81.8049C125.278 83.0925 125.325 85.4009 124.304 87.5366C124.116 87.9292 123.818 88.4474 123.394 89.0127C124.116 90.0491 125.011 91.054 126 91.9177C127.241 93.0012 129.643 94.6814 131.842 93.8492C137.464 91.7292 135.359 81.9463 135.344 81.852C135.249 81.4281 135.516 81.004 135.94 80.9098C136.364 80.8156 136.788 81.0825 136.883 81.5065C136.977 81.9619 139.301 92.7185 132.407 95.3096C131.842 95.5294 131.229 95.6236 130.617 95.6236V95.5923ZM69.6888 84.3959C69.6888 84.3959 69.4376 84.4116 69.045 84.6786C67.8044 85.5266 67.3647 86.8299 67.8044 88.306C67.9615 88.8713 68.2598 89.4366 68.6524 89.9705C69.045 89.2482 69.3591 88.463 69.5789 87.6936C70.1599 85.6836 69.9087 84.5059 69.7045 84.3802L69.6888 84.3959ZM103.796 82.3859C103.67 82.3859 103.56 82.3859 103.435 82.4016C102.76 82.4958 102.069 83.6108 102.163 85.1497C102.241 86.5629 102.901 88.0391 104.33 89.2168C106.418 87.7093 107.031 86.0762 106.748 84.7885C106.45 83.4066 105.162 82.3859 103.796 82.3859ZM87.7631 84.7885C87.6532 84.7885 87.5276 84.7885 87.3863 84.8199C86.6011 84.9141 86.0986 85.2596 85.8945 85.8563C85.6118 86.6415 85.8945 87.725 86.554 88.7614C87.1036 88.1332 87.5433 87.5051 87.8574 86.9241C88.5012 85.7464 88.4698 85.134 88.3599 84.9612C88.297 84.8827 88.1086 84.8042 87.7631 84.8042V84.7885ZM122.232 82.4016C122.106 82.4016 121.965 82.4173 121.823 82.4644C121.478 82.5586 121.289 82.7628 121.195 83.1553C120.975 84.0975 121.478 85.7621 122.467 87.5366C122.64 87.2696 122.781 87.0183 122.875 86.8142C123.708 85.0711 123.566 83.4694 122.985 82.7785C122.781 82.5429 122.53 82.4173 122.216 82.4173L122.232 82.4016Z" fill="#FCFDFF"/>
<path d="M78.671 116.572C73.9915 116.572 70.3955 113.839 68.4012 110.714C66.6738 112.897 64.2241 114.734 61.5389 114.483C54.8493 113.871 54.1741 106.726 54.1584 106.663C54.127 106.239 54.4411 105.846 54.8651 105.815C55.289 105.783 55.6816 106.098 55.713 106.522C55.7287 106.757 56.294 112.426 61.6645 112.913C63.8315 113.117 66.0143 111.342 67.5689 109.191C67.1606 108.312 66.8937 107.432 66.7523 106.6C66.3912 104.386 67.1606 102.753 68.7309 102.376C69.893 102.093 70.474 102.611 70.7252 102.941C71.6517 104.166 70.8509 106.647 69.7987 108.563C69.6731 108.798 69.5161 109.05 69.3748 109.285C71.1335 112.394 74.7766 115.347 79.519 114.954C82.8167 114.687 85.0465 112.991 86.4598 111.342C85.1564 109.913 84.544 108.265 84.4498 106.741C84.2928 104.056 85.7845 101.795 87.9045 101.465C88.8153 101.324 89.5847 101.622 90.1029 102.313C91.1236 103.648 90.998 106.27 89.7731 109.003C89.4277 109.772 89.0351 110.494 88.5797 111.17C90.2599 112.457 92.8353 113.415 96.5412 113.572C102.084 113.792 104.958 111.248 106.324 109.379C104.503 107.401 103.372 105.187 103.262 103.475C103.152 101.701 104.047 100.476 105.728 100.099C106.905 99.832 107.957 100.193 108.68 101.135C109.999 102.847 109.889 106.129 108.428 108.955C108.397 109.034 108.35 109.113 108.303 109.191C110.25 110.997 112.857 112.442 115.636 112.693C118.541 112.96 121.132 111.374 122.938 109.222C122.703 108.877 122.499 108.516 122.31 108.139C120.944 105.375 120.944 102.062 122.31 100.429C122.985 99.6121 123.975 99.3138 124.995 99.6122C126.738 100.115 127.508 101.905 127.037 104.417C126.754 105.941 126.016 107.652 124.917 109.222C126.126 110.557 128.136 111.814 131.418 111.688C133.396 111.609 134.841 110.95 135.736 109.741C137.731 107.008 136.474 102.282 136.459 102.235C136.349 101.811 136.584 101.387 137.008 101.277C137.416 101.167 137.856 101.402 137.966 101.826C138.029 102.046 139.442 107.322 136.992 110.667C135.799 112.285 133.946 113.164 131.465 113.258C128.403 113.4 125.765 112.379 123.927 110.463C121.855 112.834 118.918 114.562 115.479 114.248C112.401 113.965 109.591 112.426 107.439 110.494C105.822 112.646 102.54 115.394 96.4627 115.143C92.3956 114.97 89.5219 113.902 87.6061 112.41C85.549 114.781 82.7381 116.257 79.6289 116.509C79.2834 116.54 78.9537 116.556 78.6239 116.556L78.671 116.572ZM88.3599 103.035C88.3599 103.035 88.2499 103.035 88.1714 103.035C86.8524 103.24 85.9416 104.794 86.0358 106.679C86.0986 107.794 86.5383 108.987 87.4491 110.07C87.9045 109.364 88.2028 108.767 88.3756 108.374C89.4277 106.003 89.4277 103.978 88.8781 103.271C88.7839 103.145 88.6425 103.02 88.3442 103.02L88.3599 103.035ZM106.497 101.591C106.371 101.591 106.246 101.591 106.12 101.638C105.539 101.763 104.785 102.093 104.88 103.381C104.958 104.716 105.822 106.427 107.204 108.013C108.381 105.595 108.287 103.13 107.486 102.093C107.219 101.748 106.905 101.591 106.497 101.591ZM124.273 101.088C123.99 101.088 123.77 101.214 123.566 101.449C122.734 102.454 122.608 105.093 123.77 107.448C123.833 107.574 123.912 107.715 123.99 107.872C124.775 106.647 125.325 105.328 125.545 104.135C125.686 103.35 125.89 101.496 124.618 101.12C124.493 101.088 124.383 101.073 124.273 101.073V101.088ZM69.3905 103.883C69.3905 103.883 69.2334 103.883 69.1235 103.915C68.0557 104.182 68.2284 105.862 68.3226 106.365C68.3855 106.741 68.4797 107.134 68.6053 107.527C69.6574 105.517 69.7202 104.182 69.5004 103.899C69.5004 103.899 69.4533 103.868 69.3748 103.868L69.3905 103.883Z" fill="#FCFDFF"/>
<path d="M95.1277 138.462C94.7195 138.462 94.2955 138.446 93.8715 138.399C89.93 137.99 87.2448 136.2 85.5645 134.033C84.1669 135.431 81.9057 136.75 78.3254 136.97C74.6822 137.19 71.6986 136.043 69.5159 134.332C69.2961 134.677 69.0605 134.991 68.8093 135.305C67.0034 137.472 64.5223 138.21 61.8214 137.378C52.7449 134.567 54.1582 126.668 54.1739 126.59C54.2524 126.166 54.6607 125.883 55.0847 125.962C55.5087 126.04 55.7914 126.449 55.7128 126.873C55.6657 127.14 54.5822 133.484 62.2925 135.871C64.4124 136.53 66.2025 135.996 67.6158 134.3C67.8828 133.986 68.1183 133.625 68.3382 133.264C66.548 131.442 65.5116 129.228 65.3703 127.344C65.2132 125.239 66.2339 123.779 67.9927 123.606C69.1076 123.512 70.0498 124.046 70.6308 125.145C71.5573 126.904 71.4788 130.155 70.2697 132.918C72.1226 134.473 74.7765 135.604 78.2469 135.399C81.5131 135.195 83.4917 134.033 84.7008 132.699C83.7115 130.955 83.2719 129.102 83.2719 127.579C83.2719 125.365 84.0884 123.889 85.4389 123.732C86.1612 123.653 86.8365 123.983 87.339 124.674C88.2969 126.009 88.5952 128.898 87.3076 131.615C87.1348 131.976 86.915 132.369 86.6323 132.793C88.0613 134.787 90.4482 136.467 94.0599 136.844C99.7916 137.441 103.231 133.122 104.424 131.254C104.455 131.207 104.487 131.16 104.518 131.112C103.293 129.071 102.807 126.967 103.356 125.522C103.764 124.47 104.675 123.826 105.916 123.732C106.575 123.669 107.156 123.968 107.502 124.549C108.256 125.821 107.769 128.443 106.355 131.065C106.685 131.521 107.046 131.96 107.47 132.4C108.68 133.641 111.914 136.389 116.06 135.007C119.53 133.829 121.666 131.238 122.75 128.663C121.069 126.119 120.363 123.261 121.069 121.785C121.368 121.157 121.917 120.78 122.593 120.733C123.802 120.654 124.744 121.581 125.074 123.214C125.372 124.674 125.199 126.559 124.54 128.459C125.717 129.998 128.34 132.651 132.25 132.29C134.323 132.102 135.767 131.364 136.568 130.107C138.217 127.501 136.725 123.387 136.71 123.339C136.553 122.931 136.772 122.476 137.165 122.334C137.573 122.177 138.029 122.381 138.17 122.79C138.249 122.994 139.96 127.658 137.903 130.94C136.835 132.636 134.982 133.625 132.407 133.861C129.235 134.143 126.189 132.793 123.864 130.107C122.514 132.793 120.127 135.305 116.578 136.499C113.061 137.692 109.339 136.593 106.355 133.499C106.057 133.185 105.759 132.855 105.492 132.526C104.047 134.646 100.655 138.493 95.1749 138.493L95.1277 138.462ZM68.244 125.145C68.244 125.145 68.1654 125.145 68.1183 125.145C67.0034 125.255 66.8621 126.323 66.9249 127.187C67.0191 128.427 67.71 130.155 69.0448 131.694C69.8457 129.511 69.8928 127.108 69.2333 125.852C68.9192 125.255 68.5423 125.145 68.244 125.145ZM85.6116 125.271C85.6116 125.271 85.5959 125.271 85.5802 125.271C85.2662 125.302 84.7951 126.056 84.8108 127.548C84.8108 128.647 85.0934 129.95 85.6901 131.238C85.753 131.128 85.8001 131.034 85.8472 130.924C86.8365 128.851 86.7109 126.527 86.0199 125.569C85.8786 125.365 85.7373 125.271 85.6116 125.271ZM106.12 125.334C105.162 125.334 104.911 125.758 104.785 126.056C104.503 126.778 104.707 128.035 105.366 129.417C106.23 127.485 106.434 125.852 106.12 125.318V125.334ZM122.702 122.272C122.702 122.272 122.687 122.272 122.671 122.272C122.593 122.272 122.53 122.287 122.451 122.429C122.153 123.041 122.373 124.706 123.362 126.621C123.629 125.428 123.66 124.329 123.488 123.481C123.425 123.182 123.205 122.256 122.687 122.256L122.702 122.272Z" fill="#FCFDFF"/>
<path d="M82.8165 143C82.8165 143 81.5288 99.2982 82.2669 99.1412C83.0049 98.9998 117.159 97.9791 117.489 98.2775C119.201 99.8635 120.928 142.388 120.928 142.388L82.8008 142.984L82.8165 143Z" fill="#C35041"/>
<path d="M112.056 122.272C109.669 122.272 107.722 120.324 107.722 117.938C107.722 115.551 109.669 113.604 112.056 113.604C114.443 113.604 116.39 115.551 116.39 117.938C116.39 120.324 114.443 122.272 112.056 122.272ZM112.056 115.158C110.533 115.158 109.292 116.399 109.292 117.922C109.292 119.445 110.533 120.686 112.056 120.686C113.579 120.686 114.82 119.445 114.82 117.922C114.82 116.399 113.579 115.158 112.056 115.158Z" fill="#261D2A"/>
</svg>
