<svg width="178" height="119" viewBox="0 0 178 119" fill="none" xmlns="http://www.w3.org/2000/svg">
<path d="M75.7863 60.1847C79.165 54.8237 74.433 28.2601 74.1832 23.0966C73.9334 17.933 41.3818 17.3646 35.3281 18.5978C32.3196 19.2101 18.916 35.4635 18.916 35.4635C14.1311 36.4171 18.3985 71.6783 17.9823 74.4263C17.6209 76.8325 47.4985 78.9402 56.3475 77.9959L56.4553 78.1253C56.4553 78.1253 56.5341 78.0488 56.686 77.9549C57.8114 77.8058 58.5444 77.633 58.7491 77.3526C58.8752 77.1488 59.0086 76.7305 59.0763 76.115C63.5531 72.6228 72.5896 65.2515 75.8003 60.1621L75.7863 60.1847Z" fill="#EEEBD5"/>
<path d="M60.0639 77.3518C60.0681 77.0413 59.4464 47.0719 59.1425 38.1494L75.0596 24.1081C75.6049 23.6314 75.6574 22.7873 75.1808 22.242C74.6814 21.6827 73.86 21.6442 73.3147 22.1209L57.8782 35.7394C52.7986 32.8166 26.9344 33.7862 18.8646 34.1792C18.1197 34.2194 17.5724 34.8514 17.5899 35.5823C17.63 36.3272 18.2478 36.8972 18.9927 36.857C35.1916 36.0762 53.7432 36.2498 56.4377 37.9165C56.4377 37.9165 56.4602 37.9304 56.4829 37.9444C56.7931 46.4013 57.4185 77.1243 57.4143 77.4347C57.4306 77.9144 57.6809 78.3196 58.0432 78.5437C58.247 78.6698 58.5154 78.7419 58.7666 78.7408C59.4975 78.7233 60.0901 78.1193 60.0726 77.3884L60.0639 77.3518Z" fill="#261D2A"/>
<path d="M40.2592 52.0776C42.6352 53.5473 45.7528 52.8125 47.2225 50.4365C48.6922 48.0604 47.9576 44.9429 45.5815 43.4732C43.2055 42.0035 40.0879 42.7382 38.6182 45.1142C37.1484 47.4902 37.8832 50.6079 40.2592 52.0776Z" fill="#403955"/>
<path d="M66.0267 54.1478C68.4027 55.6175 71.5204 54.8828 72.9901 52.5068C74.4598 50.1308 73.725 47.0131 71.349 45.5434C68.9729 44.0737 65.8554 44.8085 64.3857 47.1845C62.916 49.5605 63.6507 52.678 66.0267 54.1478Z" fill="#403955"/>
<path d="M36.9652 30.2234C39.3412 31.6932 42.4588 30.9585 43.9285 28.5825C45.3983 26.2064 44.6635 23.0888 42.2875 21.6191C39.9114 20.1494 36.7939 20.8841 35.3242 23.2602C33.8545 25.6362 34.5891 28.7537 36.9652 30.2234Z" fill="#403955"/>
<path d="M52.7661 31.8578C55.1421 33.3275 58.2596 32.5928 59.7293 30.2167C61.199 27.8407 60.4644 24.7232 58.0884 23.2535C55.7123 21.7838 52.5947 22.5184 51.125 24.8945C49.6553 27.2705 50.39 30.3881 52.7661 31.8578Z" fill="#403955"/>
<path d="M42.2049 65.1775C44.5809 66.6473 47.6986 65.9126 49.1683 63.5366C50.638 61.1605 49.9032 58.0429 47.5272 56.5732C45.1512 55.1035 42.0337 55.8382 40.564 58.2143C39.0942 60.5903 39.8289 63.7078 42.2049 65.1775Z" fill="#403955"/>
<path d="M24.4641 52.3558C26.8402 53.8256 29.9578 53.0909 31.4275 50.7149C32.8972 48.3388 32.1625 45.2212 29.7865 43.7514C27.4104 42.2817 24.2929 43.0165 22.8232 45.3926C21.3535 47.7686 22.0881 50.8861 24.4641 52.3558Z" fill="#403955"/>
<path d="M31.7082 57.6506C34.497 57.7477 36.6894 60.0744 36.6149 62.8772C36.5178 65.666 34.1911 67.8584 31.3883 67.784C28.5854 67.7095 26.4071 65.3602 26.4816 62.5574C26.556 59.7545 28.9053 57.5761 31.7082 57.6506Z" fill="#403955"/>
<path d="M143.69 28.8656L143.766 28.6473C143.766 28.6473 143.657 28.6096 143.427 28.4489C142.566 27.0521 141.881 26.205 141.432 26.0907C141.104 25.9776 140.482 26.1291 139.615 26.3998C132.353 22.5489 117.279 15.0239 108.686 13.8488C99.6316 12.5957 67.4092 34.5746 60.7393 37.9723C54.0693 41.37 72.6199 84.5835 77.8856 91.8576C80.4639 95.4759 109.871 103.471 109.871 103.471C113.96 109.199 157.928 82.6834 161.774 81.5682C165.156 80.6184 150.242 39.9633 143.727 28.8781L143.69 28.8656Z" fill="#EEEBD5"/>
<path d="M142.253 27.839C143.22 27.399 143.622 26.2348 143.145 25.256C142.705 24.2897 141.541 23.8878 140.562 24.3642C140.171 24.5548 100.961 43.1847 89.4343 48.8553L61.477 36.1899C60.4835 35.7655 59.3592 36.1917 58.9473 37.1489C58.499 38.0935 58.949 39.2669 59.9062 39.6788L87.0278 51.9334C86.1338 60.4198 102.792 93.9 108.086 104.278C108.337 104.731 108.71 105.064 109.183 105.227C109.656 105.39 110.192 105.372 110.681 105.134C111.624 104.645 112.026 103.481 111.537 102.538C100.831 81.5368 89.9947 56.7852 90.7466 52.4844C101.735 47.0758 141.862 28.0295 142.266 27.8026L142.253 27.839Z" fill="#261D2A"/>
<path d="M106.768 52.1932C110.779 52.7229 113.588 56.3802 113.059 60.3912C112.529 64.4023 108.872 67.2113 104.861 66.6816C100.85 66.1518 98.0404 62.4947 98.5702 58.4836C99.0999 54.4726 102.757 51.6634 106.768 52.1932Z" fill="#403955"/>
<path d="M109.073 18.8675C113.084 19.3972 115.893 23.0544 115.363 27.0654C114.834 31.0765 111.177 33.8856 107.166 33.3559C103.155 32.8261 100.345 29.1689 100.875 25.1579C101.405 21.1468 105.062 18.3378 109.073 18.8675Z" fill="#403955"/>
<path d="M90.0989 28.8885C94.11 29.4182 96.9191 33.0755 96.3893 37.0865C95.8596 41.0976 92.2025 43.9067 88.1914 43.377C84.1804 42.8472 81.371 39.19 81.9007 35.179C82.4305 31.1679 86.0879 28.3588 90.0989 28.8885Z" fill="#403955"/>
<path d="M82.1136 63.1033C86.1246 63.6331 88.9337 67.2902 88.404 71.3013C87.8743 75.3123 84.2169 78.1215 80.2058 77.5917C76.1948 77.062 73.3857 73.4047 73.9154 69.3937C74.4452 65.3826 78.1025 62.5736 82.1136 63.1033Z" fill="#403955"/>
<path d="M135.729 38.1267C139.74 38.6564 142.549 42.3137 142.019 46.3247C141.49 50.3358 137.833 53.1449 133.822 52.6152C129.811 52.0854 127.001 48.4283 127.531 44.4172C128.061 40.4062 131.718 37.597 135.729 38.1267Z" fill="#403955"/>
<path d="M128.356 59.4831C132.367 60.0129 135.176 63.67 134.646 67.6811C134.116 71.6921 130.459 74.5014 126.448 73.9716C122.437 73.4419 119.628 69.7846 120.158 65.7736C120.687 61.7625 124.345 58.9534 128.356 59.4831Z" fill="#403955"/>
<path d="M120.907 81.0578C124.918 81.5876 127.727 85.2448 127.198 89.2559C126.668 93.2669 123.011 96.0761 119 95.5463C114.989 95.0166 112.18 91.3593 112.709 87.3483C113.239 83.3372 116.896 80.5281 120.907 81.0578Z" fill="#403955"/>
<path d="M142.686 77.2984C141.132 73.545 142.931 69.2797 146.635 67.7491C150.388 66.1947 154.654 67.993 156.184 71.6975C157.715 75.4019 155.94 79.716 152.236 81.2466C148.482 82.801 144.217 81.0028 142.686 77.2984Z" fill="#403955"/>
</svg>
