<svg width="214" height="150" viewBox="0 0 214 150" fill="none" xmlns="http://www.w3.org/2000/svg">
<path d="M25.29 51.9202C25.29 51.9202 184.61 29.2502 187.62 33.2602C190.63 37.2702 195.3 95.0202 195.3 95.0202L113.35 133.04L64.66 89.8702L25.29 51.9202Z" fill="#FFB300"/>
<path d="M25.29 51.9202C25.29 51.9202 95.82 13.8402 103.46 15.2202C111.1 16.6002 190.96 30.6502 187.62 33.2602C184.28 35.8702 107.75 67.9802 107.75 67.9802C54.46 76.7402 25.29 51.9202 25.29 51.9202Z" fill="#FFD30D"/>
<path d="M107.75 67.9799L113.35 133.03L33.32 117.52L25.29 51.9199L107.75 67.9799Z" fill="#C35041"/>
<path d="M119.06 100.74L151.84 89.4502L154.41 104.76L121.53 118.57L119.06 100.74Z" fill="#EEEBD5"/>
<path d="M123.61 109.36C123.55 109.36 123.5 109.36 123.44 109.33C123.18 109.24 123.04 108.95 123.13 108.69C123.21 108.47 125.04 103.37 127.95 102.72C129.55 102.36 130.47 103.61 131.14 104.51C131.51 105.01 131.89 105.52 132.21 105.55C132.43 105.57 132.69 105.38 132.87 105.21C133.45 104.68 134.13 103.54 134.79 102.44C136.06 100.31 137.25 98.2898 138.74 98.4098C139.59 98.4698 140.29 99.2398 140.9 100.73C141.61 102.48 142.14 102.79 142.4 102.81C143.03 102.86 143.98 101.47 144.8 100.23C145.47 99.2198 146.17 98.1698 146.97 97.3798C147.7 96.6598 148.48 96.3798 149.29 96.5598C151.29 96.9898 152.55 100.08 152.69 100.43C152.79 100.69 152.66 100.98 152.41 101.08C152.15 101.18 151.86 101.05 151.76 100.8C151.44 99.9798 150.33 97.8098 149.08 97.5398C148.61 97.4398 148.15 97.6198 147.67 98.0998C146.94 98.8098 146.28 99.8098 145.63 100.78C144.51 102.47 143.55 103.92 142.3 103.8C141.43 103.71 140.69 102.85 139.98 101.1C139.55 100.03 139.08 99.4298 138.67 99.3998C137.83 99.3298 136.57 101.42 135.66 102.94C134.93 104.16 134.24 105.31 133.55 105.94C133.06 106.39 132.59 106.58 132.12 106.53C131.35 106.46 130.84 105.76 130.34 105.09C129.61 104.11 129.07 103.48 128.17 103.68C126.2 104.12 124.55 107.67 124.08 109C124.01 109.21 123.81 109.33 123.61 109.33V109.36Z" fill="#261D2A"/>
<path d="M185.92 73.54C185.86 73.54 185.81 73.54 185.75 73.51C185.49 73.42 185.36 73.13 185.45 72.87C186.23 70.71 184.74 69.65 184.68 69.61C184.45 69.45 184.4 69.14 184.55 68.92C184.71 68.69 185.01 68.63 185.24 68.79C186.01 69.31 187.24 70.9 186.39 73.22C186.32 73.42 186.12 73.55 185.92 73.55V73.54Z" fill="#FDFEFF"/>
<path d="M183.06 77.25C183 77.25 182.95 77.25 182.89 77.22C182.63 77.13 182.5 76.84 182.59 76.58C183.37 74.42 181.88 73.36 181.82 73.32C181.59 73.16 181.54 72.85 181.69 72.63C181.84 72.4 182.15 72.34 182.38 72.5C183.15 73.02 184.38 74.61 183.53 76.93C183.46 77.13 183.26 77.26 183.06 77.26V77.25Z" fill="#FDFEFF"/>
<path d="M187.61 80.52C187.55 80.52 187.5 80.52 187.44 80.49C187.18 80.4 187.05 80.11 187.14 79.85C187.92 77.69 186.43 76.63 186.37 76.59C186.14 76.43 186.09 76.12 186.24 75.9C186.39 75.67 186.7 75.61 186.93 75.77C187.7 76.29 188.93 77.88 188.08 80.2C188.01 80.4 187.81 80.53 187.61 80.53V80.52Z" fill="#FDFEFF"/>
<path d="M185.11 84.9199C185.05 84.9199 185 84.9199 184.94 84.8899C184.68 84.7999 184.55 84.5099 184.64 84.2499C185.42 82.0899 183.93 81.0299 183.87 80.9899C183.64 80.8299 183.59 80.5199 183.74 80.2999C183.89 80.0699 184.2 80.0099 184.43 80.1699C185.2 80.6899 186.43 82.2799 185.58 84.5999C185.51 84.7999 185.31 84.9299 185.11 84.9299V84.9199Z" fill="#FDFEFF"/>
<path d="M180.69 81.6201C180.63 81.6201 180.58 81.6201 180.52 81.5901C180.26 81.5001 180.13 81.2101 180.22 80.9501C181.01 78.7701 179.47 77.7001 179.45 77.6901C179.22 77.5401 179.16 77.2301 179.31 77.0001C179.46 76.7701 179.77 76.7101 180 76.8601C180.77 77.3801 182 78.9701 181.15 81.2901C181.08 81.4901 180.88 81.6201 180.68 81.6201H180.69Z" fill="#FDFEFF"/>
<path d="M189.18 88.5C189.12 88.5 189.07 88.5 189.01 88.47C188.75 88.38 188.62 88.09 188.71 87.83C189.5 85.65 187.96 84.58 187.94 84.57C187.71 84.42 187.65 84.11 187.8 83.88C187.95 83.65 188.26 83.59 188.49 83.74C189.26 84.26 190.49 85.85 189.64 88.17C189.57 88.37 189.37 88.5 189.17 88.5H189.18Z" fill="#FDFEFF"/>
<path d="M185.52 91.7401C185.42 91.7401 185.32 91.7101 185.24 91.6501C185.01 91.4901 184.96 91.1801 185.11 90.9501C186.49 88.9501 185.41 87.5801 185.36 87.5301C185.19 87.3201 185.21 87.0001 185.42 86.8301C185.63 86.6501 185.94 86.6801 186.12 86.8901C186.69 87.5701 187.39 89.4101 185.93 91.5301C185.83 91.6701 185.68 91.7501 185.52 91.7501V91.7401Z" fill="#FDFEFF"/>
<path d="M37.8601 83.5001C37.7401 83.5001 37.6201 83.4601 37.5301 83.3701C36.8401 82.7501 35.8601 81 37.0201 78.82C37.1501 78.58 37.4501 78.4901 37.7001 78.6101C37.9401 78.7401 38.0401 79.0401 37.9001 79.2901C36.8201 81.3101 38.1401 82.58 38.2001 82.63C38.4001 82.82 38.4201 83.13 38.2301 83.34C38.1301 83.45 38.0001 83.5001 37.8601 83.5001Z" fill="#FDFEFF"/>
<path d="M41.2304 80.2501C41.1104 80.2501 40.9904 80.2101 40.8904 80.1201C40.2004 79.5001 39.2204 77.7501 40.3804 75.5701C40.5104 75.3301 40.8104 75.2301 41.0604 75.3601C41.3004 75.4901 41.4004 75.7901 41.2704 76.0401C40.1804 78.0901 41.5504 79.3701 41.5704 79.3801C41.7704 79.5701 41.7904 79.8801 41.6104 80.0901C41.5104 80.2001 41.3804 80.2601 41.2404 80.2601L41.2304 80.2501Z" fill="#FDFEFF"/>
<path d="M37.1901 76.3599C37.0701 76.3599 36.9502 76.3199 36.8602 76.2299C36.1702 75.6099 35.1901 73.8599 36.3501 71.6799C36.4801 71.4399 36.7801 71.3399 37.0301 71.4699C37.2701 71.5999 37.3702 71.8999 37.2402 72.1499C36.1602 74.1699 37.4802 75.4399 37.5402 75.4899C37.7402 75.6799 37.7602 75.9899 37.5702 76.1899C37.4702 76.2999 37.3402 76.3499 37.2002 76.3499L37.1901 76.3599Z" fill="#FDFEFF"/>
<path d="M40.2902 72.3599C40.1702 72.3599 40.0502 72.3199 39.9602 72.2299C39.2702 71.6099 38.2902 69.8599 39.4502 67.6799C39.5802 67.4399 39.8802 67.3399 40.1302 67.4699C40.3702 67.5999 40.4702 67.8999 40.3402 68.1499C39.2602 70.1699 40.5802 71.4399 40.6402 71.4899C40.8402 71.6799 40.8602 71.9899 40.6702 72.1999C40.5702 72.3099 40.4402 72.3599 40.3002 72.3599H40.2902Z" fill="#FDFEFF"/>
<path d="M44.2004 76.2598C44.0804 76.2598 43.9604 76.2198 43.8704 76.1298C43.1804 75.5098 42.2004 73.7598 43.3604 71.5798C43.4904 71.3398 43.7904 71.2398 44.0404 71.3698C44.2804 71.4998 44.3804 71.7998 44.2404 72.0498C43.1604 74.0698 44.4804 75.3398 44.5404 75.3898C44.7404 75.5798 44.7604 75.8898 44.5704 76.0898C44.4704 76.1998 44.3404 76.2498 44.2004 76.2498V76.2598Z" fill="#FDFEFF"/>
<path d="M36.7702 68.2398C36.6502 68.2398 36.5302 68.1998 36.4402 68.1098C35.7502 67.4898 34.7702 65.7398 35.9302 63.5598C36.0602 63.3198 36.3602 63.2198 36.6102 63.3498C36.8502 63.4798 36.9502 63.7798 36.8202 64.0298C35.7402 66.0498 37.0602 67.3198 37.1202 67.3698C37.3202 67.5598 37.3402 67.8698 37.1502 68.0798C37.0502 68.1898 36.9202 68.2398 36.7802 68.2398H36.7702Z" fill="#FDFEFF"/>
<path d="M39.6604 65.57C39.4904 65.57 39.3304 65.49 39.2404 65.34C38.7704 64.59 38.3404 62.67 40.0904 60.78C40.2804 60.58 40.6004 60.57 40.8004 60.75C41.0004 60.94 41.0104 61.25 40.8304 61.46C39.1504 63.26 40.0804 64.79 40.0904 64.81C40.2404 65.04 40.1704 65.35 39.9304 65.5C39.8504 65.55 39.7604 65.58 39.6604 65.58V65.57Z" fill="#FDFEFF"/>
</svg>
