<svg width="183" height="138" viewBox="0 0 183 138" fill="none" xmlns="http://www.w3.org/2000/svg">
<path d="M162.967 1.84793L121.158 16.0487L50.9315 21.2834L3.16807 39.9966C3.80123 43.8359 16.7005 132.616 19.2279 134.95C22.6375 138.087 71.7988 120.21 71.7988 120.21L140.505 112.858C140.505 112.858 178.069 96.4338 178.391 92.1563C178.836 86.1908 165.045 6.5989 162.96 1.85531L162.967 1.84793Z" fill="#EEEBD5"/>
<path d="M12.972 44.0103C12.972 44.0103 52.6381 29.8987 53.4236 29.3618C54.2091 28.8248 122.017 22.5076 122.017 22.5076C122.017 22.5076 157.97 10.2861 158.416 11.7517C158.862 13.2173 174.026 90.4067 171.812 90.9856C169.598 91.5646 139.521 107.628 139.521 107.628L70.3363 115.35C70.3363 115.35 27.0428 130.231 25.8938 129.016C24.7441 127.793 12.9647 44.0177 12.9647 44.0177L12.972 44.0103Z" fill="#8A98C6"/>
<path d="M45.5539 60.9198C45.5539 60.9198 36.0653 40.9027 67.1955 37.6499C77.5592 36.5686 76.1868 46.5506 82.764 46.7337C89.3333 46.9171 86.9026 38.4267 100.309 36.8781C113.717 35.3365 112.778 43.6859 116.52 45.8202C120.262 47.9545 120.51 36.9183 133.537 44.2534C146.564 51.5885 121.756 64.9711 125.454 73.3206C129.143 81.6704 134.683 91.5093 126.428 96.2903C118.172 101.071 106.634 94.3498 103.317 97.313C100.001 100.276 92.6806 103.707 83.3163 101.8C73.952 99.8933 70.9958 88.6167 67.9636 87.3922C57.5641 83.196 43.3768 84.4749 46.0294 73.9338C47.7481 67.0996 48.6597 64.349 45.5626 60.9265L45.5539 60.9198Z" fill="#403955"/>
<path d="M152.734 57.6008C152.734 57.6008 140.603 61.6244 140.603 67.2235C140.602 72.8227 138.475 79.671 141.586 81.5897C144.697 83.5085 146.331 80.8795 153.452 74.8171C160.572 68.7546 157.789 64.5113 160.547 60.8747C163.296 57.2385 156.085 56.2621 152.742 57.6004L152.734 57.6008Z" fill="#403955"/>
<path d="M147.747 91.6069C147.747 91.6069 142.789 87.6668 150.391 83.7298C159.559 78.9808 158.998 76.4732 164.45 77.8024C167.619 78.5747 156.168 95.4292 147.755 91.6066L147.747 91.6069Z" fill="#403955"/>
<path d="M24.0436 75.4504C24.0436 75.4504 30.8626 76.0486 36.6512 83.4472C38.6909 86.0586 48.3581 87.1426 49.5341 93.1275C50.7108 99.1194 49.4989 103.522 49.5814 106.508C49.6719 109.495 43.6923 106.608 35.7944 105.487C27.8964 104.367 27.9206 95.8101 25.7182 91.8409C23.5159 87.8716 14.7314 75.1176 24.0436 75.4504Z" fill="#403955"/>
<path d="M150.047 19.5657C150.047 19.5657 142.13 21.2126 144.339 25.9896C145.363 28.2126 149.17 27.3466 151.293 31.7401C153.423 36.1331 158.732 30.5582 157.72 27.4399C156.708 24.3217 154.557 18.5559 150.047 19.5657Z" fill="#403955"/>
<path d="M47.5872 100.093C47.5872 100.093 47.5311 100.096 47.5063 100.09C47.2856 100.057 47.1306 99.8779 47.1511 99.6842C47.149 99.6629 47.2237 99.1311 47.416 98.2514C47.4606 98.0566 47.6661 97.9403 47.8883 97.9875C48.1104 98.0347 48.2501 98.2213 48.2055 98.4161C48.0176 99.2599 47.9502 99.7842 47.9509 99.7913C47.9282 99.9637 47.7715 100.085 47.5872 100.093ZM48.1896 97.3099C48.1496 97.3117 48.1015 97.3139 48.0593 97.2943C47.8444 97.2397 47.712 97.0456 47.7653 96.8576C47.8829 96.431 48.021 95.9679 48.1809 95.4823C48.2423 95.2939 48.466 95.1982 48.6815 95.26C48.8971 95.3218 49.0142 95.5236 48.9529 95.712C48.7922 96.1905 48.6608 96.6391 48.5424 97.0586C48.5015 97.2103 48.3506 97.3099 48.1904 97.3171L48.1896 97.3099ZM49.0893 94.5991C49.0332 94.6016 48.9764 94.597 48.9261 94.5779C48.7178 94.5086 48.6 94.2997 48.6781 94.1176C48.8511 93.6815 49.0314 93.2379 49.243 92.7857C49.3211 92.6037 49.563 92.5286 49.764 92.6053C49.973 92.6817 50.0748 92.8914 49.9887 93.0737C49.7844 93.5184 49.6026 93.9478 49.4369 94.3765C49.3866 94.5145 49.2423 94.5995 49.09 94.6063L49.0893 94.5991ZM89.2843 92.3328C89.1481 92.3389 89.0141 92.2877 88.9224 92.1776C88.6197 91.8126 88.2834 91.4349 87.9231 91.0583C87.779 90.9076 87.796 90.6783 87.9607 90.5567C88.1254 90.4351 88.3855 90.4592 88.5296 90.6099C88.9073 91 89.253 91.3916 89.5652 91.7704C89.694 91.9289 89.6604 92.1518 89.4869 92.2666C89.4264 92.305 89.3564 92.3296 89.2843 92.3328ZM50.2737 91.997C50.2096 91.9999 50.136 91.9889 50.0683 91.9562C49.8658 91.8653 49.78 91.6549 49.8749 91.4793C50.0974 91.0552 50.344 90.63 50.5993 90.2116C50.7028 90.0427 50.9469 89.989 51.1421 90.0874C51.3372 90.1858 51.4077 90.404 51.3041 90.5728C51.0481 90.9842 50.8161 91.3944 50.6002 91.8039C50.5396 91.9209 50.4099 91.9909 50.2737 91.997ZM87.167 90.1138C87.0548 90.1188 86.9303 90.0815 86.8495 89.9994C86.503 89.6793 86.1143 89.3396 85.6935 89.0013C85.5268 88.866 85.5117 88.6381 85.6582 88.4959C85.8048 88.3537 86.0619 88.3494 86.2286 88.4847C86.6669 88.8365 87.0563 89.1833 87.4203 89.5169C87.5797 89.6597 87.5788 89.8883 87.4228 90.0166C87.3565 90.0767 87.2632 90.1095 87.175 90.1134L87.167 90.1138ZM84.7531 88.1436C84.6569 88.1479 84.5498 88.1241 84.4712 88.0634C84.0715 87.7742 83.6471 87.4789 83.1913 87.1922C83.01 87.0718 82.9636 86.8525 83.0846 86.6971C83.2137 86.5414 83.4592 86.5019 83.6405 86.6223C84.1057 86.9229 84.5469 87.2245 84.9634 87.5201C85.1374 87.648 85.1685 87.8751 85.0307 88.0241C84.9585 88.1059 84.858 88.1461 84.7538 88.1507L84.7531 88.1436ZM51.7952 89.5441C51.7151 89.5476 51.6247 89.5303 51.5476 89.4837C51.359 89.3707 51.3045 89.1518 51.4168 88.9897C51.7136 88.5837 52.0199 88.1916 52.3364 87.8204C52.4654 87.6647 52.7211 87.6461 52.9024 87.7666C53.0837 87.887 53.1229 88.1138 52.9858 88.2698C52.6832 88.619 52.3842 89.0036 52.102 89.3947C52.0313 89.4907 51.9161 89.5458 51.7959 89.5512L51.7952 89.5441ZM82.1007 86.4412C82.0205 86.4447 81.9382 86.427 81.8611 86.3805C81.4176 86.1361 80.9582 85.8924 80.4754 85.6569C80.2802 85.5585 80.2018 85.3406 80.2973 85.1721C80.4009 85.0033 80.6442 84.9424 80.8387 85.0337C81.3382 85.2756 81.8144 85.5257 82.2673 85.7839C82.4551 85.8898 82.5176 86.1084 82.406 86.2776C82.3353 86.3736 82.2209 86.4358 82.0927 86.4415L82.1007 86.4412ZM53.7106 87.3235C53.6065 87.3281 53.4987 87.2972 53.4106 87.2226C53.2439 87.0872 53.2288 86.8594 53.3753 86.7172C53.7413 86.3581 54.1335 86.0192 54.5212 85.7163C54.6852 85.5876 54.9365 85.6049 55.0887 85.7552C55.2408 85.9055 55.2311 86.1273 55.0671 86.256C54.6947 86.5512 54.3251 86.8747 53.973 87.2118C53.8993 87.2793 53.8068 87.3192 53.7106 87.3235ZM79.2382 85.048C79.1741 85.0509 79.1086 85.0396 79.0416 85.014C78.5704 84.8137 78.0767 84.6286 77.5676 84.4514C77.3586 84.3751 77.2495 84.1729 77.3276 83.9909C77.4057 83.8088 77.6302 83.7203 77.8392 83.7966C78.365 83.9802 78.8682 84.1791 79.3553 84.3787C79.557 84.4625 79.6516 84.6797 79.5647 84.8549C79.5049 84.979 79.3752 85.0491 79.231 85.0555L79.2382 85.048ZM56.0585 85.4763C55.9222 85.4824 55.7882 85.4312 55.6966 85.3211C55.559 85.1558 55.6014 84.9397 55.7749 84.8249C56.2217 84.5478 56.6786 84.2918 57.1465 84.0638C57.3381 83.9696 57.5872 84.0441 57.7007 84.2104C57.8149 84.3838 57.7485 84.601 57.5568 84.6953C57.1115 84.908 56.6772 85.1487 56.2618 85.4172C56.2013 85.4556 56.1313 85.4802 56.0592 85.4834L56.0585 85.4763ZM76.208 83.9837C76.1599 83.9859 76.1111 83.9809 76.0616 83.9688C75.5642 83.8268 75.0514 83.6926 74.5241 83.5734C74.31 83.5258 74.1696 83.3321 74.2142 83.1373C74.2595 82.9496 74.473 82.833 74.6952 82.8802C75.2392 83.0059 75.768 83.1393 76.2821 83.2878C76.4977 83.3495 76.6228 83.551 76.5615 83.7394C76.5118 83.8845 76.3683 83.9766 76.208 83.9837ZM58.8291 84.1458C58.6608 84.1533 58.4912 84.068 58.4199 83.9212C58.329 83.7396 58.429 83.5352 58.6308 83.462C59.1365 83.2894 59.6604 83.1375 60.1879 83.0211C60.3999 82.9688 60.6212 83.0874 60.6888 83.2772C60.7484 83.4674 60.631 83.6583 60.419 83.7106C59.9235 83.8255 59.4302 83.9618 58.9559 84.1258C58.9173 84.1418 58.8779 84.1507 58.8298 84.1529L58.8291 84.1458ZM73.0689 83.2742C73.0689 83.2742 73.0048 83.277 72.972 83.2714C72.4644 83.1869 71.9334 83.1107 71.3958 83.049C71.1759 83.0231 71.0128 82.8447 71.0334 82.651C71.0539 82.4573 71.2493 82.32 71.4693 82.3459C72.0228 82.4069 72.5618 82.4828 73.0862 82.5736C73.3077 82.6137 73.4554 82.7999 73.4261 82.9869C73.3946 83.1525 73.2452 83.2663 73.0609 83.2745L73.0689 83.2742ZM61.8936 83.4091C61.7013 83.4177 61.512 83.2976 61.4699 83.121C61.4183 82.9305 61.5518 82.7388 61.7652 82.7007C62.3029 82.6053 62.834 82.5245 63.3578 82.4511C63.5742 82.4414 63.7868 82.5533 63.8311 82.7513C63.8746 82.9421 63.7324 83.127 63.5102 83.1584C63.0017 83.2239 62.4786 83.3044 61.957 83.3991C61.941 83.3998 61.9169 83.4009 61.9009 83.4016L61.8936 83.4091ZM69.8684 82.9101C69.8684 82.9101 69.8363 82.9115 69.8203 82.9123C69.3017 82.8783 68.7772 82.866 68.2374 82.8616C68.0116 82.8574 67.8267 82.7014 67.8225 82.5016C67.8183 82.3019 67.9947 82.1369 68.2132 82.1486C68.769 82.1523 69.3103 82.171 69.8449 82.2042C70.0634 82.2159 70.2418 82.3864 70.238 82.5866C70.232 82.7653 70.0694 82.9083 69.8691 82.9172L69.8684 82.9101ZM65.0547 82.9894C64.8383 82.9991 64.6469 82.8577 64.6193 82.6661C64.5911 82.4674 64.7427 82.2964 64.9664 82.2793C65.4691 82.2354 65.9725 82.1987 66.4613 82.1768L66.5815 82.1715C66.8058 82.1614 66.998 82.3099 67.0183 82.509C67.0385 82.708 66.8781 82.8723 66.6537 82.8823L66.5335 82.8877C66.0527 82.9091 65.5647 82.9381 65.078 82.9812L65.062 82.982L65.0547 82.9894Z" fill="white"/>
<path d="M90.0615 77.0082C89.8858 77.016 89.7239 76.9238 89.652 76.7709C89.528 76.4996 89.4047 76.2353 89.2741 75.9785C89.1834 75.798 89.2743 75.5881 89.4755 75.5153C89.6768 75.4425 89.9186 75.5311 90.0093 75.7116C90.1486 75.9752 90.2733 76.2536 90.3988 76.539C90.4815 76.7199 90.3819 76.9231 90.172 76.9892C90.1327 76.998 90.1015 77.0065 90.0615 77.0082ZM88.9486 74.9141C88.7968 74.9208 88.645 74.8494 88.5601 74.7254C88.3018 74.3181 88.0195 73.9119 87.7161 73.5349C87.5869 73.3703 87.6292 73.1555 87.8108 73.0481C87.9924 72.9407 88.2379 72.9866 88.3671 73.1512C88.6806 73.5489 88.9804 73.9686 89.2496 74.4039C89.3555 74.5766 89.2893 74.7925 89.0975 74.8791C89.0437 74.9027 88.9885 74.9123 88.9326 74.9148L88.9486 74.9141ZM87.0862 72.555C86.9664 72.5603 86.8415 72.5161 86.7522 72.4278C86.4031 72.0742 86.0394 71.7355 85.6539 71.419C85.4876 71.2844 85.4725 71.0579 85.6186 70.9166C85.7646 70.7752 86.021 70.771 86.1873 70.9056C86.5909 71.2425 86.9887 71.6011 87.356 71.9752C87.4997 72.125 87.4909 72.3525 87.3267 72.4733C87.2598 72.526 87.1821 72.5507 87.0942 72.5546L87.0862 72.555ZM84.6949 70.5955C84.607 70.5994 84.5083 70.5754 84.4306 70.5221C84.0087 70.2427 83.5651 69.9855 83.1077 69.7503C82.9131 69.6525 82.8428 69.4355 82.946 69.2677C83.0492 69.0999 83.2926 69.0465 83.4872 69.1444C83.97 69.3927 84.4398 69.6699 84.887 69.9624C85.0678 70.0822 85.1141 70.3001 84.9855 70.4549C84.9143 70.5432 84.8068 70.5906 84.6949 70.5955ZM81.89 69.1442C81.8261 69.147 81.7607 69.1357 81.7019 69.11C81.2248 68.9182 80.726 68.7487 80.2293 68.6003C80.0143 68.5389 79.8975 68.3382 79.9586 68.151C80.0197 67.9637 80.2427 67.8686 80.4577 67.9301C80.9791 68.0844 81.5034 68.267 82.0052 68.4648C82.2143 68.5478 82.3079 68.7566 82.2213 68.9308C82.1617 69.0541 82.0331 69.1307 81.8893 69.1371L81.89 69.1442ZM78.8262 68.2225C78.8262 68.2225 78.7463 68.226 78.7129 68.2133C78.2126 68.1077 77.6897 68.0173 77.1603 67.9414C76.9402 67.9086 76.7856 67.7309 76.806 67.5384C76.8345 67.3455 77.0292 67.2091 77.2493 67.2419C77.8027 67.3168 78.3423 67.4135 78.8673 67.5251C79.0808 67.5724 79.2289 67.7646 79.1837 67.9511C79.1517 68.1087 79.002 68.2147 78.8262 68.2225ZM75.6351 67.782C75.6351 67.782 75.6031 67.7834 75.5872 67.7841C75.0701 67.7502 74.5384 67.7312 74.0089 67.7334C73.7845 67.7362 73.5994 67.5741 73.5951 67.3756C73.5829 67.1774 73.7573 66.9993 73.9846 67.0247C74.5308 67.0289 75.0784 67.0472 75.6195 67.0799C75.8374 67.0916 76.0153 67.2611 76.0035 67.4604C75.9976 67.6381 75.8356 67.7802 75.6358 67.789L75.6351 67.782ZM70.8443 67.9447C70.6445 67.9536 70.4638 67.8338 70.4217 67.6582C70.3703 67.4689 70.5033 67.2784 70.7161 67.2406C70.7401 67.2395 71.3474 67.1345 72.3439 67.069L72.3519 67.0687C72.5676 67.0591 72.7593 67.2068 72.7867 67.3972C72.807 67.5951 72.6551 67.7579 72.4321 67.7749C71.4835 67.8383 70.8995 67.9352 70.8915 67.9355C70.8755 67.9362 70.8516 67.9373 70.8356 67.938L70.8443 67.9447Z" fill="white"/>
<path d="M95.3145 74.9642C95.1254 74.9726 94.9477 74.8611 94.8991 74.6947C94.7562 74.2236 94.6375 73.7583 94.5426 73.292C94.499 73.0973 94.6395 72.9225 94.8581 72.8917C95.0709 72.8822 95.28 72.9923 95.3236 73.187C95.4164 73.6323 95.5336 74.0836 95.6673 74.5411C95.7259 74.7281 95.5947 74.9166 95.3854 74.961C95.3618 74.962 95.3382 74.9631 95.3145 74.9642ZM94.7317 72.1951C94.5189 72.2046 94.322 72.0588 94.3028 71.8701L94.2679 71.5275C94.2309 71.164 94.2018 70.8001 94.1898 70.4495C94.1857 70.2531 94.3599 70.0978 94.5741 70.1023C94.7962 70.1065 94.9781 70.2599 94.9823 70.4563C94.9935 70.8 95.0205 71.1429 95.0482 71.4928L95.0816 71.8213C95.1016 72.0171 94.9517 72.1783 94.7317 72.1951ZM94.6376 69.4043C94.6376 69.4043 94.5982 69.406 94.5824 69.4067C94.3668 69.3882 94.1993 69.2201 94.2109 69.023C94.242 68.5511 94.2889 68.0785 94.3601 67.6118C94.3882 67.4209 94.5889 67.2926 94.806 67.3251C95.023 67.3575 95.1762 67.5403 95.1482 67.7312C95.0827 68.1765 95.0265 68.6355 95.0011 69.0861C94.9874 69.2623 94.8347 69.3955 94.6455 69.4039L94.6376 69.4043ZM95.0622 66.6535C95.0622 66.6535 94.9834 66.657 94.9426 66.6448C94.7319 66.598 94.5938 66.4075 94.6376 66.216C94.7497 65.7615 94.8847 65.299 95.0448 64.8494C95.1051 64.6642 95.333 64.5697 95.5372 64.6309C95.7492 64.6917 95.8644 64.8902 95.8041 65.0755C95.6584 65.5103 95.5212 65.9519 95.4149 66.385C95.3747 66.5343 95.2349 66.6388 95.0615 66.6465L95.0622 66.6535ZM95.9725 64.0075C95.9173 64.01 95.8528 63.9988 95.7955 63.9803C95.5899 63.9052 95.4898 63.699 95.5666 63.52C95.7524 63.0903 95.9698 62.6593 96.1958 62.2349C96.289 62.0622 96.5198 61.9957 96.7189 62.0852C96.918 62.1746 97.0024 62.3815 96.9092 62.5542C96.6896 62.9643 96.4787 63.381 96.2993 63.7963C96.2412 63.9253 96.1143 64.0012 95.9646 64.0079L95.9725 64.0075ZM97.3111 61.5251C97.2323 61.5286 97.1592 61.5108 97.0847 61.479C96.8921 61.3752 96.8227 61.1606 96.9253 61.0015C97.1842 60.5897 97.4603 60.1911 97.7457 59.8062C97.864 59.6464 98.1055 59.6076 98.291 59.7187C98.4765 59.8298 98.5301 60.0451 98.4118 60.2049C98.1407 60.5751 97.8717 60.9664 97.6193 61.3639C97.5504 61.4652 97.4379 61.5264 97.3039 61.5324L97.3111 61.5251ZM99.0078 59.2162C98.9132 59.2205 98.8237 59.1964 98.7392 59.1439C98.5609 59.0255 98.5223 58.8025 98.65 58.6563C98.9676 58.277 99.2946 57.9113 99.623 57.5596C99.7585 57.4131 100.011 57.4018 100.182 57.5276C100.353 57.6534 100.384 57.8768 100.24 58.0237C99.9183 58.361 99.6064 58.719 99.2959 59.091C99.2249 59.1714 99.1189 59.2183 99.0085 59.2232L99.0078 59.2162ZM100.986 57.1056C100.884 57.1101 100.77 57.0801 100.691 57.0063C100.527 56.8732 100.512 56.6491 100.656 56.5093C101.024 56.1558 101.394 55.8233 101.75 55.5125C101.903 55.3793 102.157 55.389 102.306 55.5298C102.463 55.6703 102.462 55.8951 102.309 56.0283C101.96 56.3318 101.597 56.6569 101.245 57.0027C101.172 57.0692 101.081 57.1083 100.987 57.1126L100.986 57.1056ZM103.205 55.1808C103.087 55.1861 102.963 55.1424 102.876 55.062C102.726 54.9142 102.736 54.6961 102.897 54.5695C103.314 54.2349 103.719 53.9359 104.096 53.6733C104.266 53.5534 104.515 53.5844 104.657 53.7326C104.799 53.8878 104.774 54.1066 104.612 54.2262C104.243 54.4885 103.853 54.7797 103.443 55.107C103.377 55.1591 103.292 55.1839 103.205 55.1878L103.205 55.1808ZM105.626 53.4577C105.492 53.4637 105.36 53.4133 105.279 53.3116C105.144 53.1561 105.177 52.9369 105.356 52.8236C106.159 52.3103 106.654 52.0425 106.677 52.0344C106.857 51.9351 107.108 51.9941 107.22 52.1577C107.34 52.3279 107.283 52.5411 107.102 52.6335C107.102 52.6335 106.606 52.8943 105.833 53.3923C105.774 53.43 105.697 53.4545 105.626 53.4577Z" fill="white"/>
<path d="M143.582 63.0987C143.43 63.1054 143.278 63.0341 143.194 62.9102C142.926 62.4893 142.652 62.0829 142.378 61.6836C142.256 61.5116 142.314 61.2962 142.505 61.2026C142.696 61.1019 142.943 61.1619 143.056 61.3342C143.339 61.7403 143.614 62.1538 143.891 62.5884C143.997 62.7611 143.93 62.9768 143.739 63.0634C143.685 63.087 143.63 63.1036 143.575 63.1061L143.582 63.0987ZM141.864 60.6564C141.728 60.6624 141.586 60.6049 141.502 60.4951C141.189 60.0975 140.877 59.7141 140.558 59.3451C140.422 59.188 140.456 58.9666 140.628 58.8525C140.801 58.7384 141.054 58.7769 141.19 58.934C141.518 59.3097 141.839 59.7069 142.162 60.1182C142.291 60.2828 142.249 60.4975 142.067 60.6048C142.007 60.643 141.944 60.6599 141.873 60.6631L141.864 60.6564ZM139.881 58.3677C139.761 58.3731 139.628 58.3293 139.547 58.2407C139.188 57.8735 138.831 57.5204 138.469 57.1889C138.31 57.0469 138.311 56.8199 138.474 56.692C138.629 56.5575 138.886 56.5674 139.038 56.7167C139.41 57.062 139.784 57.4214 140.152 57.8024C140.296 57.9521 140.287 58.1795 140.115 58.3006C140.048 58.3533 139.97 58.378 139.89 58.3815L139.881 58.3677ZM137.622 56.2829C137.518 56.2875 137.403 56.2571 137.323 56.1826C136.92 55.8529 136.519 55.5443 136.112 55.2502C135.939 55.1231 135.908 54.9045 136.045 54.7495C136.182 54.6015 136.429 54.5835 136.611 54.7102C137.026 55.011 137.444 55.333 137.857 55.6766C138.023 55.8111 138.038 56.0374 137.892 56.1787C137.819 56.2458 137.726 56.2854 137.63 56.2896L137.622 56.2829ZM135.1 54.4579C135.013 54.4618 134.922 54.4375 134.837 54.3916C134.399 54.113 133.955 53.8489 133.505 53.6064C133.318 53.5012 133.247 53.2844 133.359 53.1163C133.471 52.9553 133.714 52.9019 133.909 53.0068C134.376 53.2627 134.838 53.5402 135.292 53.8251C135.473 53.9448 135.52 54.1627 135.399 54.317C135.328 54.4053 135.22 54.4526 135.1 54.4579ZM132.33 52.942C132.258 52.9452 132.185 52.9342 132.117 52.9017C131.653 52.6811 131.167 52.4757 130.681 52.2773C130.472 52.1943 130.379 51.9856 130.465 51.8115C130.551 51.6304 130.784 51.5562 130.985 51.6395C131.487 51.8372 131.991 52.0561 132.471 52.2831C132.673 52.3734 132.751 52.5899 132.657 52.7643C132.596 52.8735 132.466 52.943 132.331 52.949L132.33 52.942ZM129.369 51.7608C129.313 51.7633 129.264 51.7583 129.206 51.7396C128.708 51.5773 128.204 51.4294 127.693 51.2959C127.479 51.2416 127.346 51.0417 127.407 50.8546C127.46 50.6678 127.682 50.5586 127.896 50.6201C128.424 50.7598 128.945 50.9141 129.46 51.0828C129.668 51.1516 129.784 51.3522 129.715 51.5397C129.665 51.6767 129.521 51.7611 129.37 51.7679L129.369 51.7608ZM126.269 50.9476C126.269 50.9476 126.197 50.9508 126.156 50.9384C125.615 50.8276 125.093 50.7443 124.596 50.6741C124.376 50.6413 124.222 50.4637 124.242 50.2712C124.271 50.0784 124.466 49.9492 124.685 49.9749C125.223 50.0504 125.769 50.1397 126.294 50.2512C126.516 50.2982 126.655 50.4835 126.618 50.6767C126.586 50.8342 126.437 50.9401 126.261 50.9479L126.269 50.9476ZM123.078 50.5002C123.078 50.5002 123.038 50.5019 123.022 50.5027C122.489 50.4625 121.965 50.436 121.442 50.4237C121.217 50.4195 121.04 50.2571 121.035 50.0587C121.031 49.8602 121.208 49.7105 121.433 49.7147C121.964 49.7266 122.512 49.752 123.063 49.7986C123.281 49.8172 123.451 49.9871 123.439 50.1862C123.425 50.3642 123.271 50.4988 123.079 50.5072L123.078 50.5002ZM118.28 50.571C118.08 50.5798 117.899 50.4601 117.849 50.2779C117.797 50.0887 117.939 49.905 118.152 49.8672C118.176 49.8662 118.767 49.769 119.79 49.7237C120.013 49.7138 120.205 49.8614 120.225 50.0591C120.245 50.2568 120.086 50.42 119.862 50.4299C118.895 50.4727 118.327 50.5618 118.327 50.5618C118.311 50.5625 118.295 50.5632 118.279 50.5639L118.28 50.571Z" fill="white"/>
<path d="M69.6894 65.7424C69.6894 65.7424 50.1512 49.3159 65.4091 46.1726C79.3899 43.2986 71.3301 65.247 69.6894 65.7424Z" fill="white"/>
<path d="M64.8514 47.4765C54.1858 50.6986 69.0572 64.0409 69.0572 64.0409C71.0522 63.8491 75.7199 44.1971 64.8514 47.4765ZM66.6068 53.9527C65.4794 53.9973 64.4746 53.2047 64.3588 52.1795C64.243 51.1543 65.0606 50.2896 66.188 50.245C67.3154 50.2005 68.3201 50.993 68.436 52.0182C68.5518 53.0435 67.7342 53.9081 66.6068 53.9527Z" fill="#C35041"/>
<path d="M99.4822 95.2791C99.4822 95.2791 84.1977 75.5499 100.061 75.5899C114.6 75.6255 101.234 95.1325 99.4822 95.2791Z" fill="white"/>
<path d="M99.1801 76.7329C87.8384 77.6889 99.2767 93.5141 99.2767 93.5141C101.296 93.7306 110.737 75.7544 99.1801 76.7329ZM99.3276 83.324C98.2049 83.1425 97.4051 82.1793 97.5396 81.1721C97.6741 80.165 98.693 79.4968 99.8158 79.6782C100.939 79.8596 101.738 80.8228 101.604 81.83C101.469 82.8372 100.45 83.5054 99.3276 83.324Z" fill="#C35041"/>
<path d="M149.951 66.7835C149.951 66.7835 134.666 47.0543 150.53 47.0943C165.068 47.1299 151.702 66.6369 149.951 66.7835Z" fill="white"/>
<path d="M149.659 48.2442C138.317 49.2002 149.755 65.0253 149.755 65.0253C151.775 65.2418 161.215 47.2656 149.659 48.2442ZM149.798 54.8355C148.676 54.6541 147.876 53.6908 148.01 52.6837C148.145 51.6765 149.164 51.0083 150.287 51.1897C151.409 51.3711 152.209 52.3344 152.075 53.3415C151.94 54.3487 150.921 55.0169 149.798 54.8355Z" fill="#C35041"/>
<path d="M110.488 49.3014C110.488 49.3014 91.0326 32.7868 106.315 29.7203C120.318 26.909 112.129 48.813 110.488 49.3014Z" fill="white"/>
<path d="M105.757 31.0174C95.0702 34.191 109.871 47.5925 109.871 47.5925C111.866 47.4077 116.646 27.7865 105.757 31.0174ZM107.475 37.5091C106.348 37.5537 105.35 36.7538 105.242 35.7283C105.126 34.7031 105.952 33.8452 107.08 33.8076C108.208 33.763 109.205 34.5629 109.314 35.5884C109.429 36.6136 108.603 37.4716 107.475 37.5091Z" fill="#C35041"/>
<path d="M43.3678 99.0339C43.3678 99.0339 19.3755 88.7123 32.5026 81.304C44.5292 74.5117 44.7269 98.0827 43.3678 99.0339Z" fill="white"/>
<path d="M32.4308 82.7114C23.5944 88.8951 42.1819 97.5556 42.1819 97.5556C43.9734 96.7927 41.4329 76.4082 32.4308 82.7114ZM36.3525 88.4928C35.3186 88.8585 34.1027 88.3763 33.6356 87.4195C33.1684 86.4628 33.6313 85.3918 34.6652 85.0261C35.6991 84.6605 36.915 85.1426 37.3821 86.0994C37.8492 87.0561 37.3864 88.1272 36.3525 88.4928Z" fill="#C35041"/>
<path d="M20.6618 50.7054C20.5094 50.7123 20.357 50.6403 20.2798 50.5147C20.1655 50.3407 20.2401 50.1224 20.4247 50.0352C20.4407 50.0345 21.96 49.2783 22.8499 47.6402C23.0603 47.251 23.3282 47.0311 23.6521 46.9664C24.189 46.8563 24.6817 47.1853 25.2604 47.5678C26.0804 48.1043 27.1161 48.7817 28.5314 48.4315C30.1049 48.0527 30.8548 46.385 31.46 45.0392C31.8949 44.0809 32.2041 43.3933 32.7651 43.2033C32.9833 43.129 33.2188 43.1471 33.4463 43.2444C33.9012 43.439 34.2999 43.7149 34.6818 43.9844C35.5236 44.5773 36.2532 45.0964 37.6159 44.7843C38.6795 44.5431 39.0605 43.451 39.3977 42.4827C39.6917 41.6454 39.9645 40.8376 40.7602 40.8951C41.2459 40.9162 41.552 41.1533 41.8231 41.3633C42.3653 41.7833 43.0387 42.3049 45.9312 41.5802C46.1435 41.5277 46.3724 41.6393 46.4401 41.8297C46.5077 42.0202 46.3908 42.2189 46.1785 42.2715C43.1131 43.0397 42.1268 42.5322 41.3047 41.8954C41.0599 41.7058 40.9381 41.6181 40.7522 41.6121C40.5983 41.6046 40.3146 42.3054 40.172 42.7275C39.8158 43.7468 39.3287 45.1446 37.8478 45.4834C36.0992 45.8844 35.092 45.17 34.1984 44.5436C33.842 44.2873 33.4958 44.052 33.1247 43.8895C32.8337 43.9599 32.4916 44.7206 32.2146 45.3278C31.5831 46.7322 30.7141 48.656 28.7706 49.1231C26.9688 49.5551 25.6568 48.6967 24.7938 48.1334C24.4316 47.8989 24.0095 47.6312 23.8512 47.6598C23.7724 47.6776 23.6629 47.7901 23.5687 47.9735C22.5699 49.8099 20.888 50.6308 20.8194 50.6697C20.7654 50.6936 20.7107 50.7104 20.6545 50.7129L20.6618 50.7054Z" fill="white"/>
<path d="M84.1715 108.748C84.0028 108.756 83.8407 108.669 83.77 108.528C83.679 108.345 83.7632 108.14 83.9649 108.058C83.981 108.058 85.5893 107.437 86.6598 105.882C86.913 105.51 87.2003 105.317 87.5436 105.279C88.0871 105.226 88.5519 105.594 89.0867 106.017C89.85 106.624 90.7986 107.388 92.2618 107.171C93.8763 106.932 94.8212 105.332 95.5714 104.043C96.1087 103.125 96.5024 102.466 97.0862 102.331C97.3148 102.278 97.5442 102.31 97.758 102.43C98.1938 102.67 98.5557 102.978 98.9088 103.279C99.6858 103.943 100.358 104.526 101.751 104.333C102.842 104.19 103.341 103.129 103.788 102.201C104.175 101.39 104.543 100.631 105.328 100.732C105.81 100.797 106.095 101.058 106.336 101.292C106.827 101.76 107.442 102.338 110.422 101.871C110.644 101.832 110.852 101.967 110.904 102.166C110.948 102.359 110.813 102.545 110.591 102.584C107.436 103.081 106.505 102.488 105.756 101.78C105.533 101.574 105.418 101.471 105.23 101.443C105.025 101.416 104.714 102.094 104.521 102.499C104.047 103.486 103.408 104.835 101.887 105.04C100.095 105.28 99.1593 104.486 98.3458 103.781C98.0189 103.5 97.7008 103.226 97.3424 103.033C97.04 103.076 96.6132 103.809 96.2685 104.394C95.4758 105.742 94.3933 107.579 92.3975 107.878C90.5442 108.149 89.3329 107.181 88.5339 106.539C88.2005 106.273 87.8239 105.98 87.6472 105.988C87.5668 105.992 87.4491 106.105 87.3284 106.27C86.124 108.018 84.3512 108.69 84.2731 108.715C84.2343 108.731 84.1868 108.74 84.1386 108.742L84.1715 108.748Z" fill="white"/>
<path d="M17.906 58.8157C17.7535 58.8226 17.6012 58.7506 17.524 58.625C17.4096 58.451 17.4842 58.2327 17.6688 58.1455C17.6849 58.1448 19.2041 57.3886 20.094 55.7505C20.3044 55.3613 20.5723 55.1414 20.8962 55.0767C21.4331 54.9666 21.9258 55.2956 22.5045 55.6782C23.3325 56.2143 24.3522 56.8924 25.7755 56.5418C27.349 56.163 28.0989 54.4954 28.7041 53.1495C29.139 52.1912 29.4482 51.5037 30.0092 51.3136C30.2281 51.2465 30.4629 51.2574 30.6904 51.3547C31.1453 51.5493 31.544 51.8252 31.9179 52.0951C32.7597 52.688 33.4885 53.1999 34.852 52.895C35.9156 52.6538 36.2966 51.5617 36.6338 50.5934C36.9278 49.7561 37.2086 48.948 37.9962 49.0058C38.482 49.027 38.788 49.2641 39.0592 49.474C39.6014 49.894 40.2748 50.4156 43.1673 49.6909C43.3796 49.6384 43.6085 49.75 43.6761 49.9404C43.7438 50.1309 43.6269 50.3296 43.4146 50.3822C40.3492 51.1504 39.3629 50.6429 38.5408 50.0061C38.2959 49.8165 38.1742 49.7288 37.9882 49.7228C37.7957 49.7314 37.5595 50.4229 37.4161 50.8378C37.0599 51.8571 36.5736 53.2621 35.092 53.5938C33.3426 53.9876 32.3361 53.2803 31.4425 52.6539C31.0861 52.3976 30.7399 52.1623 30.3689 51.9998C30.0778 52.0702 29.7357 52.8309 29.4587 53.4381C28.8272 54.8425 27.9582 56.7663 26.0148 57.2334C24.2129 57.6654 22.9009 56.807 22.0379 56.2438C21.6757 56.0092 21.2617 55.7411 21.0954 55.7701C21.0166 55.788 20.9071 55.9004 20.8128 56.0838C19.814 57.9203 18.1321 58.7411 18.0635 58.78C18.0095 58.8039 17.9548 58.8207 17.8987 58.8232L17.906 58.8157Z" fill="white"/>
<path d="M122.035 38.5903C121.866 38.598 121.695 38.5046 121.624 38.356C121.541 38.1718 121.633 37.9653 121.844 37.8906C121.86 37.8899 123.491 37.3241 124.631 35.8049C124.902 35.4456 125.197 35.2514 125.534 35.2289C126.079 35.1896 126.53 35.5739 127.051 36.0201C127.793 36.6513 128.721 37.4548 130.189 37.2723C131.817 37.0826 132.823 35.5116 133.633 34.2532C134.213 33.3521 134.625 32.7045 135.218 32.5836C135.448 32.537 135.678 32.5771 135.893 32.7047C136.321 32.9526 136.669 33.2765 137.007 33.5864C137.754 34.2753 138.412 34.8742 139.811 34.731C140.905 34.6162 141.456 33.5792 141.937 32.6609C142.358 31.8611 142.751 31.1131 143.539 31.2435C144.024 31.3227 144.294 31.5995 144.527 31.8347C145.004 32.319 145.596 32.9136 148.596 32.5458C148.82 32.5212 149.027 32.6563 149.063 32.8571C149.099 33.0506 148.956 33.2378 148.74 33.2621C145.565 33.6523 144.656 33.036 143.936 32.3025C143.721 32.0882 143.614 31.9847 143.424 31.9499C143.243 31.9148 142.883 32.589 142.672 32.9889C142.164 33.9589 141.458 35.2922 139.939 35.448C138.141 35.6383 137.234 34.8049 136.442 34.0747C136.121 33.7785 135.819 33.5031 135.467 33.2951C135.164 33.3306 134.711 34.0451 134.34 34.6185C133.496 35.9436 132.336 37.7529 130.324 37.9818C128.464 38.1893 127.281 37.1878 126.504 36.522C126.177 36.2405 125.812 35.903 125.638 35.9398C125.557 35.9434 125.431 36.0504 125.31 36.2149C124.028 37.9286 122.232 38.538 122.154 38.5632C122.115 38.5794 122.075 38.5813 122.034 38.5831L122.035 38.5903Z" fill="white"/>
<path d="M137.41 42.4655C137.241 42.4732 137.071 42.3798 136.999 42.2313C136.916 42.0473 137.008 41.8408 137.219 41.7662C137.235 41.7654 138.514 41.3171 139.412 40.1204C139.639 39.8138 139.898 39.6504 140.194 39.6297C140.661 39.6157 141.038 39.9092 141.471 40.2796C142.08 40.801 142.779 41.405 143.911 41.2668C145.173 41.1228 145.969 39.8801 146.612 38.8827C147.087 38.1459 147.421 37.6177 147.928 37.5152C148.134 37.477 148.339 37.511 148.528 37.6252C148.88 37.8332 149.165 38.0947 149.44 38.3423C150.027 38.8792 150.534 39.3474 151.614 39.2405C152.444 39.1522 152.88 38.3377 153.252 37.6199C153.598 36.9612 153.922 36.3324 154.62 36.4452C155.03 36.5132 155.263 36.741 155.461 36.9415C155.829 37.3149 156.288 37.7781 158.648 37.4829C158.871 37.4511 159.079 37.5934 159.115 37.7869C159.15 37.9803 159.008 38.1674 158.784 38.192C156.2 38.5118 155.454 38.0039 154.861 37.4023C154.69 37.2294 154.62 37.1676 154.496 37.1443C154.379 37.1858 154.142 37.6373 153.978 37.9337C153.556 38.7259 152.987 39.8138 151.724 39.9435C150.237 40.0834 149.472 39.3884 148.859 38.8239C148.609 38.5896 148.369 38.3694 148.094 38.2085C147.937 38.2517 147.553 38.8472 147.302 39.2487C146.618 40.3201 145.675 41.7863 144.03 41.9694C142.507 42.1543 141.543 41.3239 140.907 40.7821C140.713 40.6103 140.386 40.3362 140.282 40.3409C140.258 40.342 140.188 40.3741 140.075 40.531C139.035 41.9148 137.575 42.4147 137.513 42.4392C137.474 42.4554 137.434 42.4572 137.393 42.459L137.41 42.4655Z" fill="white"/>
<path d="M107.54 108.293C107.371 108.3 107.2 108.207 107.129 108.058C107.046 107.874 107.138 107.668 107.349 107.593C107.365 107.593 108.644 107.144 109.542 105.948C109.769 105.641 110.028 105.478 110.324 105.457C110.801 105.457 111.168 105.736 111.601 106.107C112.21 106.628 112.9 107.225 114.041 107.094C115.303 106.95 116.099 105.707 116.742 104.71C117.217 103.973 117.551 103.445 118.058 103.342C118.264 103.304 118.469 103.338 118.658 103.452C119.01 103.66 119.295 103.922 119.57 104.169C120.157 104.706 120.665 105.182 121.743 105.068C122.574 104.979 123.009 104.165 123.382 103.447C123.727 102.788 124.052 102.16 124.75 102.272C125.16 102.34 125.393 102.568 125.591 102.769C125.959 103.142 126.418 103.605 128.778 103.31C128.993 103.279 129.209 103.421 129.245 103.614C129.28 103.807 129.137 103.995 128.922 104.019C126.338 104.339 125.592 103.831 124.999 103.229C124.828 103.056 124.757 102.994 124.634 102.971C124.509 103.013 124.28 103.464 124.116 103.761C123.694 104.553 123.125 105.641 121.862 105.77C120.375 105.917 119.61 105.215 118.997 104.651C118.747 104.416 118.507 104.196 118.232 104.035C118.075 104.079 117.699 104.674 117.44 105.075C116.756 106.147 115.813 107.613 114.169 107.803C112.635 107.967 111.682 107.158 111.046 106.616C110.851 106.444 110.484 106.165 110.412 106.175C110.396 106.176 110.32 106.216 110.205 106.365C109.165 107.749 107.705 108.249 107.643 108.274C107.604 108.29 107.564 108.292 107.524 108.293L107.54 108.293Z" fill="white"/>
<path d="M53.667 30.7393C53.4819 30.7479 53.3082 30.637 53.2608 30.4714L50.8428 22.4254C50.7856 22.2393 50.9065 22.052 51.1113 22.0076C51.3168 21.9702 51.5291 22.0793 51.5863 22.2654L54.0043 30.3114C54.0615 30.4975 53.9406 30.6848 53.7358 30.7292C53.7126 30.7302 53.6895 30.7313 53.6664 30.7324L53.667 30.7393Z" fill="#261D2A"/>
<path d="M70.6833 120.021C70.4975 120.029 70.3231 119.918 70.2748 119.746L68.8732 114.971C68.8157 114.784 68.9448 114.597 69.1503 114.552C69.3637 114.508 69.5704 114.631 69.6278 114.817L71.0295 119.592C71.0869 119.779 70.9579 119.966 70.7523 120.011C70.7291 120.012 70.7059 120.013 70.6826 120.014L70.6833 120.021Z" fill="#261D2A"/>
<path d="M140.457 112.065C140.258 112.075 140.076 111.944 140.043 111.763L139.085 106.633C139.05 106.439 139.187 106.265 139.4 106.241C139.605 106.217 139.81 106.347 139.845 106.541L140.803 111.672C140.837 111.866 140.7 112.04 140.487 112.064C140.48 112.064 140.464 112.065 140.457 112.065Z" fill="#261D2A"/>
<path d="M123.296 23.2742C123.092 23.2839 122.912 23.139 122.886 22.9518L122.091 16.5085C122.073 16.314 122.215 16.1468 122.426 16.1367L122.434 16.1363C122.637 16.1266 122.818 16.2715 122.844 16.4587L123.638 22.902C123.657 23.0965 123.514 23.2638 123.303 23.2738L123.296 23.2742Z" fill="#261D2A"/>
</svg>
