<svg width="214" height="183" viewBox="0 0 214 183" fill="none" xmlns="http://www.w3.org/2000/svg">
<path d="M206 91.5C206 97.3384 197.205 102.363 196.008 107.867C194.759 113.561 200.796 121.266 198.454 126.53C196.06 131.89 185.861 133.374 182.374 138.111C178.887 142.897 181.229 152.133 176.858 156.201C172.434 160.269 162.391 158.067 157.187 161.274C152.035 164.432 150.37 173.812 144.593 176.061C138.869 178.214 130.542 172.711 124.298 173.812C118.261 174.912 112.849 183 106.5 183C100.151 183 94.687 174.912 88.7024 173.812C82.5097 172.663 74.1313 178.214 68.4069 176.061C62.5785 173.86 60.9652 164.48 55.8133 161.274C50.6093 158.067 40.5656 160.221 36.1423 156.201C31.7189 152.133 34.1127 142.897 30.6261 138.111C27.1914 133.374 16.9916 131.842 14.5458 126.53C12.204 121.266 18.1886 113.609 16.9916 107.867C15.7947 102.315 7 97.3384 7 91.5C7 85.6616 15.7947 80.6368 16.9916 75.1334C18.2406 69.4385 12.204 61.7338 14.5458 56.4697C16.9396 51.1098 27.1394 49.6263 30.6261 44.8886C34.1127 40.103 31.7709 30.8669 36.1423 26.7992C40.5656 22.7314 50.6093 24.9328 55.8133 21.7265C60.9652 18.568 62.6305 9.18828 68.4069 6.93907C74.1313 4.78556 82.4576 10.289 88.7024 9.18828C94.739 8.0876 100.151 0 106.5 0C112.849 0 118.313 8.0876 124.298 9.18828C130.49 10.3368 138.869 4.78556 144.593 6.93907C150.422 9.14043 152.035 18.5201 157.187 21.7265C162.391 24.9328 172.434 22.7793 176.858 26.7992C181.281 30.8669 178.887 40.103 182.374 44.8886C185.809 49.6263 196.008 51.1577 198.454 56.4697C200.796 61.7338 194.811 69.3907 196.008 75.1334C197.205 80.6846 206 85.6616 206 91.5Z" fill="#8A98C6"/>
<path d="M25.29 73.9202C25.29 73.9202 184.61 51.2502 187.62 55.2602C190.63 59.2702 195.3 117.02 195.3 117.02L113.35 155.04L64.66 111.87L25.29 73.9202Z" fill="#FFB300"/>
<path d="M25.29 73.9202C25.29 73.9202 95.82 35.8402 103.46 37.2202C111.1 38.6002 190.96 52.6502 187.62 55.2602C184.28 57.8702 107.75 89.9802 107.75 89.9802C54.46 98.7402 25.29 73.9202 25.29 73.9202Z" fill="#FFD30D"/>
<path d="M107.75 89.9799L113.35 155.03L33.32 139.52L25.29 73.9199L107.75 89.9799Z" fill="#C35041"/>
<path d="M119.06 122.74L151.84 111.45L154.41 126.76L121.53 140.57L119.06 122.74Z" fill="#EEEBD5"/>
<path d="M123.61 131.36C123.55 131.36 123.5 131.36 123.44 131.33C123.18 131.24 123.04 130.95 123.13 130.69C123.21 130.47 125.04 125.37 127.95 124.72C129.55 124.36 130.47 125.61 131.14 126.51C131.51 127.01 131.89 127.52 132.21 127.55C132.43 127.57 132.69 127.38 132.87 127.21C133.45 126.68 134.13 125.54 134.79 124.44C136.06 122.31 137.25 120.29 138.74 120.41C139.59 120.47 140.29 121.24 140.9 122.73C141.61 124.48 142.14 124.79 142.4 124.81C143.03 124.86 143.98 123.47 144.8 122.23C145.47 121.22 146.17 120.17 146.97 119.38C147.7 118.66 148.48 118.38 149.29 118.56C151.29 118.99 152.55 122.08 152.69 122.43C152.79 122.69 152.66 122.98 152.41 123.08C152.15 123.18 151.86 123.05 151.76 122.8C151.44 121.98 150.33 119.81 149.08 119.54C148.61 119.44 148.15 119.62 147.67 120.1C146.94 120.81 146.28 121.81 145.63 122.78C144.51 124.47 143.55 125.92 142.3 125.8C141.43 125.71 140.69 124.85 139.98 123.1C139.55 122.03 139.08 121.43 138.67 121.4C137.83 121.33 136.57 123.42 135.66 124.94C134.93 126.16 134.24 127.31 133.55 127.94C133.06 128.39 132.59 128.58 132.12 128.53C131.35 128.46 130.84 127.76 130.34 127.09C129.61 126.11 129.07 125.48 128.17 125.68C126.2 126.12 124.55 129.67 124.08 131C124.01 131.21 123.81 131.33 123.61 131.33V131.36Z" fill="#261D2A"/>
<path d="M185.92 95.54C185.86 95.54 185.81 95.54 185.75 95.51C185.49 95.42 185.36 95.13 185.45 94.87C186.23 92.71 184.74 91.65 184.68 91.61C184.45 91.45 184.4 91.14 184.55 90.92C184.71 90.69 185.01 90.63 185.24 90.79C186.01 91.31 187.24 92.9 186.39 95.22C186.32 95.42 186.12 95.55 185.92 95.55V95.54Z" fill="#FDFEFF"/>
<path d="M183.06 99.25C183 99.25 182.95 99.25 182.89 99.22C182.63 99.13 182.5 98.84 182.59 98.58C183.37 96.42 181.88 95.36 181.82 95.32C181.59 95.16 181.54 94.85 181.69 94.63C181.84 94.4 182.15 94.34 182.38 94.5C183.15 95.02 184.38 96.61 183.53 98.93C183.46 99.13 183.26 99.26 183.06 99.26V99.25Z" fill="#FDFEFF"/>
<path d="M187.61 102.52C187.55 102.52 187.5 102.52 187.44 102.49C187.18 102.4 187.05 102.11 187.14 101.85C187.92 99.69 186.43 98.63 186.37 98.59C186.14 98.43 186.09 98.12 186.24 97.9C186.39 97.67 186.7 97.61 186.93 97.77C187.7 98.29 188.93 99.88 188.08 102.2C188.01 102.4 187.81 102.53 187.61 102.53V102.52Z" fill="#FDFEFF"/>
<path d="M185.11 106.92C185.05 106.92 185 106.92 184.94 106.89C184.68 106.8 184.55 106.51 184.64 106.25C185.42 104.09 183.93 103.03 183.87 102.99C183.64 102.83 183.59 102.52 183.74 102.3C183.89 102.07 184.2 102.01 184.43 102.17C185.2 102.69 186.43 104.28 185.58 106.6C185.51 106.8 185.31 106.93 185.11 106.93V106.92Z" fill="#FDFEFF"/>
<path d="M180.69 103.62C180.63 103.62 180.58 103.62 180.52 103.59C180.26 103.5 180.13 103.21 180.22 102.95C181.01 100.77 179.47 99.7001 179.45 99.6901C179.22 99.5401 179.16 99.2301 179.31 99.0001C179.46 98.7701 179.77 98.7101 180 98.8601C180.77 99.3801 182 100.97 181.15 103.29C181.08 103.49 180.88 103.62 180.68 103.62H180.69Z" fill="#FDFEFF"/>
<path d="M189.18 110.5C189.12 110.5 189.07 110.5 189.01 110.47C188.75 110.38 188.62 110.09 188.71 109.83C189.5 107.65 187.96 106.58 187.94 106.57C187.71 106.42 187.65 106.11 187.8 105.88C187.95 105.65 188.26 105.59 188.49 105.74C189.26 106.26 190.49 107.85 189.64 110.17C189.57 110.37 189.37 110.5 189.17 110.5H189.18Z" fill="#FDFEFF"/>
<path d="M185.52 113.74C185.42 113.74 185.32 113.71 185.24 113.65C185.01 113.49 184.96 113.18 185.11 112.95C186.49 110.95 185.41 109.58 185.36 109.53C185.19 109.32 185.21 109 185.42 108.83C185.63 108.65 185.94 108.68 186.12 108.89C186.69 109.57 187.39 111.41 185.93 113.53C185.83 113.67 185.68 113.75 185.52 113.75V113.74Z" fill="#FDFEFF"/>
<path d="M37.8601 105.5C37.7401 105.5 37.6201 105.46 37.5301 105.37C36.8401 104.75 35.8601 103 37.0201 100.82C37.1501 100.58 37.4501 100.49 37.7001 100.61C37.9401 100.74 38.0401 101.04 37.9001 101.29C36.8201 103.31 38.1401 104.58 38.2001 104.63C38.4001 104.82 38.4201 105.13 38.2301 105.34C38.1301 105.45 38.0001 105.5 37.8601 105.5Z" fill="#FDFEFF"/>
<path d="M41.2304 102.25C41.1104 102.25 40.9904 102.21 40.8904 102.12C40.2004 101.5 39.2204 99.7501 40.3804 97.5701C40.5104 97.3301 40.8104 97.2301 41.0604 97.3601C41.3004 97.4901 41.4004 97.7901 41.2704 98.0401C40.1804 100.09 41.5504 101.37 41.5704 101.38C41.7704 101.57 41.7904 101.88 41.6104 102.09C41.5104 102.2 41.3804 102.26 41.2404 102.26L41.2304 102.25Z" fill="#FDFEFF"/>
<path d="M37.1901 98.3599C37.0701 98.3599 36.9502 98.3199 36.8602 98.2299C36.1702 97.6099 35.1901 95.8599 36.3501 93.6799C36.4801 93.4399 36.7801 93.3399 37.0301 93.4699C37.2701 93.5999 37.3702 93.8999 37.2402 94.1499C36.1602 96.1699 37.4802 97.4399 37.5402 97.4899C37.7402 97.6799 37.7602 97.9899 37.5702 98.1899C37.4702 98.2999 37.3402 98.3499 37.2002 98.3499L37.1901 98.3599Z" fill="#FDFEFF"/>
<path d="M40.2902 94.3599C40.1702 94.3599 40.0502 94.3199 39.9602 94.2299C39.2702 93.6099 38.2902 91.8599 39.4502 89.6799C39.5802 89.4399 39.8802 89.3399 40.1302 89.4699C40.3702 89.5999 40.4702 89.8999 40.3402 90.1499C39.2602 92.1699 40.5802 93.4399 40.6402 93.4899C40.8402 93.6799 40.8602 93.9899 40.6702 94.1999C40.5702 94.3099 40.4402 94.3599 40.3002 94.3599H40.2902Z" fill="#FDFEFF"/>
<path d="M44.2004 98.2598C44.0804 98.2598 43.9604 98.2198 43.8704 98.1298C43.1804 97.5098 42.2004 95.7598 43.3604 93.5798C43.4904 93.3398 43.7904 93.2398 44.0404 93.3698C44.2804 93.4998 44.3804 93.7998 44.2404 94.0498C43.1604 96.0698 44.4804 97.3398 44.5404 97.3898C44.7404 97.5798 44.7604 97.8898 44.5704 98.0898C44.4704 98.1998 44.3404 98.2498 44.2004 98.2498V98.2598Z" fill="#FDFEFF"/>
<path d="M36.7702 90.2398C36.6502 90.2398 36.5302 90.1998 36.4402 90.1098C35.7502 89.4898 34.7702 87.7398 35.9302 85.5598C36.0602 85.3198 36.3602 85.2198 36.6102 85.3498C36.8502 85.4798 36.9502 85.7798 36.8202 86.0298C35.7402 88.0498 37.0602 89.3198 37.1202 89.3698C37.3202 89.5598 37.3402 89.8698 37.1502 90.0798C37.0502 90.1898 36.9202 90.2398 36.7802 90.2398H36.7702Z" fill="#FDFEFF"/>
<path d="M39.6604 87.57C39.4904 87.57 39.3304 87.49 39.2404 87.34C38.7704 86.59 38.3404 84.67 40.0904 82.78C40.2804 82.58 40.6004 82.57 40.8004 82.75C41.0004 82.94 41.0104 83.25 40.8304 83.46C39.1504 85.26 40.0804 86.79 40.0904 86.81C40.2404 87.04 40.1704 87.35 39.9304 87.5C39.8504 87.55 39.7604 87.58 39.6604 87.58V87.57Z" fill="#FDFEFF"/>
</svg>
