<svg width="199" height="185" viewBox="0 0 199 185" fill="none" xmlns="http://www.w3.org/2000/svg">
<path d="M199 92.5C199 98.4022 190.205 103.482 189.008 109.046C187.759 114.803 193.796 122.592 191.454 127.913C189.06 133.332 178.861 134.831 175.374 139.621C171.887 144.459 174.229 153.796 169.858 157.908C165.434 162.02 155.391 159.795 150.187 163.036C145.035 166.229 143.37 175.711 137.593 177.985C131.869 180.162 123.542 174.599 117.298 175.711C111.261 176.824 105.849 185 99.5 185C93.1512 185 87.687 176.824 81.7024 175.711C75.5097 174.55 67.1313 180.162 61.4069 177.985C55.5785 175.76 53.9652 166.277 48.8133 163.036C43.6093 159.795 33.5656 161.972 29.1423 157.908C24.7189 153.796 27.1127 144.459 23.6261 139.621C20.1914 134.831 9.99163 133.283 7.54576 127.913C5.20397 122.592 11.1886 114.851 9.99164 109.046C8.79472 103.434 0 98.4022 0 92.5C0 86.5978 8.79472 81.518 9.99164 75.9545C11.2406 70.1974 5.20397 62.4085 7.54576 57.0868C9.93959 51.6684 20.1394 50.1687 23.6261 45.3792C27.1127 40.5413 24.7709 31.2042 29.1423 27.0921C33.5656 22.9799 43.6093 25.2053 48.8133 21.9639C53.9652 18.7709 55.6305 9.2887 61.4069 7.01491C67.1313 4.83787 75.4576 10.4014 81.7024 9.28869C87.739 8.17599 93.1512 0 99.5 0C105.849 0 111.313 8.17599 117.298 9.28869C123.49 10.4498 131.869 4.83787 137.593 7.01491C143.422 9.24032 145.035 18.7225 150.187 21.9639C155.391 25.2053 165.434 23.0282 169.858 27.0921C174.281 31.2042 171.887 40.5413 175.374 45.3792C178.809 50.1687 189.008 51.7168 191.454 57.0868C193.796 62.4085 187.811 70.149 189.008 75.9545C190.205 81.5664 199 86.5978 199 92.5Z" fill="#8A98C6"/>
<g clip-path="url(#clip0_4055_2484)">
<path d="M60.5905 32.1163L166.224 70.1452C166.224 70.1452 141.572 151.099 136.245 149.127C130.917 147.155 28.8885 107.889 28.3793 103.155C27.8701 98.4199 57.7588 29.5603 60.5905 32.1163Z" fill="#FFB300"/>
<path d="M52.6303 44.7942L162.337 84.971L158.472 94.9827L48.2451 53.4716L52.6303 44.7942Z" fill="#212438"/>
<path d="M78.7798 90.1284C78.506 90.1896 78.2127 90.1636 77.947 90.027C73.1792 87.6945 46.3862 78.5999 46.1039 78.5062C45.4383 78.2759 45.082 77.5583 45.3122 76.8927C45.5424 76.227 46.2598 75.8707 46.9254 76.1009C48.0296 76.4815 74.157 85.3458 79.0591 87.7528C79.6916 88.0689 79.9511 88.8212 79.6504 89.4634C79.471 89.8302 79.1462 90.0727 78.7853 90.1533L78.7798 90.1284Z" fill="#FDFFFF"/>
<path d="M68.8903 93.645C68.7161 93.6839 68.5459 93.6827 68.355 93.647C64.181 92.8023 45.6182 85.1621 44.828 84.842C44.179 84.5688 43.8696 83.8277 44.1303 83.1814C44.4033 82.5323 45.1443 82.2229 45.7906 82.4837C52.3832 85.2056 65.6956 90.5166 68.8541 91.1439C69.5375 91.2787 69.9906 91.9615 69.8559 92.6451C69.7473 93.1529 69.3604 93.5269 68.8875 93.6325L68.8903 93.645Z" fill="#FDFFFF"/>
<path d="M108.708 114.074C108.708 114.074 101.713 125.517 103.858 126.345C106.003 127.172 124.546 134.137 124.546 134.137L129.027 122.028L108.708 114.074Z" fill="black"/>
<path d="M51.7446 60.4783C51.7446 60.4783 47.6695 67.1522 48.9136 67.6322C50.1576 68.1122 74.2296 76.9 74.2296 76.9L77.0083 69.9799L51.7321 60.4811L51.7446 60.4783Z" fill="#FEFFFF"/>
<path d="M82.6391 71.0872C82.6391 71.0872 78.5641 77.7611 79.8081 78.2411C81.0521 78.7211 105.124 87.5088 105.124 87.5088L107.903 80.5888L82.6267 71.09L82.6391 71.0872Z" fill="#FEFFFF"/>
<path d="M113.487 82.3074C113.487 82.3074 109.412 88.9813 110.656 89.4613C111.9 89.9413 135.972 98.7291 135.972 98.7291L138.751 91.809L113.475 82.3102L113.487 82.3074Z" fill="#FEFFFF"/>
<path d="M143.377 93.2715C143.377 93.2715 139.302 99.9454 140.546 100.425C141.79 100.905 151.758 103.88 151.758 103.88L153.782 97.3242L143.374 93.2591L143.377 93.2715Z" fill="#FEFFFF"/>
</g>
<defs>
<clipPath id="clip0_4055_2484">
<rect width="155" height="148" fill="white" transform="translate(10 37.8008) rotate(-12.5956)"/>
</clipPath>
</defs>
</svg>
