<svg width="199" height="185" viewBox="0 0 199 185" fill="none" xmlns="http://www.w3.org/2000/svg">
<path d="M199 92.5C199 98.4022 190.205 103.482 189.008 109.046C187.759 114.803 193.796 122.592 191.454 127.913C189.06 133.332 178.861 134.831 175.374 139.621C171.887 144.459 174.229 153.796 169.858 157.908C165.434 162.02 155.391 159.795 150.187 163.036C145.035 166.229 143.37 175.711 137.593 177.985C131.869 180.162 123.542 174.599 117.298 175.711C111.261 176.824 105.849 185 99.5 185C93.1512 185 87.687 176.824 81.7024 175.711C75.5097 174.55 67.1313 180.162 61.4069 177.985C55.5785 175.76 53.9652 166.277 48.8133 163.036C43.6093 159.795 33.5656 161.972 29.1423 157.908C24.7189 153.796 27.1127 144.459 23.6261 139.621C20.1914 134.831 9.99163 133.283 7.54576 127.913C5.20397 122.592 11.1886 114.851 9.99164 109.046C8.79472 103.434 0 98.4022 0 92.5C0 86.5978 8.79472 81.518 9.99164 75.9545C11.2406 70.1974 5.20397 62.4085 7.54576 57.0868C9.93959 51.6684 20.1394 50.1687 23.6261 45.3792C27.1127 40.5413 24.7709 31.2042 29.1423 27.0921C33.5656 22.9799 43.6093 25.2053 48.8133 21.9639C53.9652 18.7709 55.6305 9.2887 61.4069 7.01491C67.1313 4.83787 75.4576 10.4014 81.7024 9.28869C87.739 8.17599 93.1512 0 99.5 0C105.849 0 111.313 8.17599 117.298 9.28869C123.49 10.4498 131.869 4.83787 137.593 7.01491C143.422 9.24032 145.035 18.7225 150.187 21.9639C155.391 25.2053 165.434 23.0282 169.858 27.0921C174.281 31.2042 171.887 40.5413 175.374 45.3792C178.809 50.1687 189.008 51.7168 191.454 57.0868C193.796 62.4085 187.811 70.149 189.008 75.9545C190.205 81.5664 199 86.5978 199 92.5Z" fill="#8A98C6"/>
<path d="M88.7863 100.185C92.165 94.8237 87.433 68.2601 87.1832 63.0966C86.9334 57.933 54.3818 57.3646 48.3281 58.5978C45.3196 59.2101 31.916 75.4635 31.916 75.4635C27.1311 76.4171 31.3985 111.678 30.9823 114.426C30.6209 116.832 60.4985 118.94 69.3475 117.996L69.4553 118.125C69.4553 118.125 69.5341 118.049 69.686 117.955C70.8114 117.806 71.5444 117.633 71.7491 117.353C71.8752 117.149 72.0086 116.731 72.0763 116.115C76.5531 112.623 85.5896 105.251 88.8003 100.162L88.7863 100.185Z" fill="#EEEBD5"/>
<path d="M73.0639 117.352C73.0681 117.041 72.4464 87.0719 72.1425 78.1494L88.0596 64.1081C88.6049 63.6314 88.6574 62.7873 88.1808 62.242C87.6814 61.6827 86.86 61.6442 86.3147 62.1209L70.8782 75.7394C65.7986 72.8166 39.9344 73.7862 31.8646 74.1792C31.1197 74.2194 30.5724 74.8514 30.5899 75.5823C30.63 76.3272 31.2478 76.8972 31.9927 76.857C48.1916 76.0762 66.7432 76.2498 69.4377 77.9165C69.4377 77.9165 69.4602 77.9304 69.4829 77.9444C69.7931 86.4013 70.4185 117.124 70.4143 117.435C70.4306 117.914 70.6809 118.32 71.0432 118.544C71.247 118.67 71.5154 118.742 71.7666 118.741C72.4975 118.723 73.0901 118.119 73.0726 117.388L73.0639 117.352Z" fill="#261D2A"/>
<path d="M53.2592 92.0776C55.6352 93.5473 58.7528 92.8125 60.2225 90.4365C61.6922 88.0604 60.9576 84.9429 58.5815 83.4732C56.2055 82.0035 53.0879 82.7382 51.6182 85.1142C50.1484 87.4902 50.8832 90.6079 53.2592 92.0776Z" fill="#403955"/>
<path d="M79.0267 94.1478C81.4027 95.6175 84.5204 94.8828 85.9901 92.5068C87.4598 90.1308 86.725 87.0131 84.349 85.5434C81.9729 84.0737 78.8554 84.8085 77.3857 87.1845C75.916 89.5605 76.6507 92.678 79.0267 94.1478Z" fill="#403955"/>
<path d="M49.9652 70.2234C52.3412 71.6932 55.4588 70.9585 56.9285 68.5825C58.3983 66.2064 57.6635 63.0888 55.2875 61.6191C52.9114 60.1494 49.7939 60.8841 48.3242 63.2602C46.8545 65.6362 47.5891 68.7537 49.9652 70.2234Z" fill="#403955"/>
<path d="M65.7661 71.8578C68.1421 73.3275 71.2596 72.5928 72.7293 70.2167C74.199 67.8407 73.4644 64.7232 71.0884 63.2535C68.7123 61.7838 65.5947 62.5184 64.125 64.8945C62.6553 67.2705 63.39 70.3881 65.7661 71.8578Z" fill="#403955"/>
<path d="M55.2049 105.178C57.5809 106.647 60.6986 105.913 62.1683 103.537C63.638 101.161 62.9032 98.0429 60.5272 96.5732C58.1512 95.1035 55.0337 95.8382 53.564 98.2143C52.0942 100.59 52.8289 103.708 55.2049 105.178Z" fill="#403955"/>
<path d="M37.4641 92.3558C39.8402 93.8256 42.9578 93.0909 44.4275 90.7149C45.8972 88.3388 45.1625 85.2212 42.7865 83.7514C40.4104 82.2817 37.2929 83.0165 35.8232 85.3926C34.3535 87.7686 35.0881 90.8861 37.4641 92.3558Z" fill="#403955"/>
<path d="M44.7082 97.6506C47.497 97.7477 49.6894 100.074 49.6149 102.877C49.5178 105.666 47.1911 107.858 44.3883 107.784C41.5854 107.709 39.4071 105.36 39.4816 102.557C39.556 99.7545 41.9053 97.5761 44.7082 97.6506Z" fill="#403955"/>
<path d="M156.69 68.8656L156.766 68.6473C156.766 68.6473 156.657 68.6096 156.427 68.4489C155.566 67.0521 154.881 66.205 154.432 66.0907C154.104 65.9776 153.482 66.1291 152.615 66.3998C145.353 62.5489 130.279 55.0239 121.686 53.8488C112.632 52.5957 80.4092 74.5746 73.7393 77.9723C67.0693 81.37 85.6199 124.583 90.8856 131.858C93.4639 135.476 122.871 143.471 122.871 143.471C126.96 149.199 170.928 122.683 174.774 121.568C178.156 120.618 163.242 79.9633 156.727 68.8781L156.69 68.8656Z" fill="#EEEBD5"/>
<path d="M155.253 67.839C156.22 67.399 156.622 66.2348 156.145 65.256C155.705 64.2897 154.541 63.8878 153.562 64.3642C153.171 64.5548 113.961 83.1847 102.434 88.8553L74.477 76.1899C73.4835 75.7655 72.3592 76.1917 71.9473 77.1489C71.499 78.0935 71.949 79.2669 72.9062 79.6788L100.028 91.9334C99.1338 100.42 115.792 133.9 121.086 144.278C121.337 144.731 121.71 145.064 122.183 145.227C122.656 145.39 123.192 145.372 123.681 145.134C124.624 144.645 125.026 143.481 124.537 142.538C113.831 121.537 102.995 96.7852 103.747 92.4844C114.735 87.0758 154.862 68.0295 155.266 67.8026L155.253 67.839Z" fill="#261D2A"/>
<path d="M119.768 92.1932C123.779 92.7229 126.588 96.3802 126.059 100.391C125.529 104.402 121.872 107.211 117.861 106.682C113.85 106.152 111.04 102.495 111.57 98.4836C112.1 94.4726 115.757 91.6634 119.768 92.1932Z" fill="#403955"/>
<path d="M122.073 58.8675C126.084 59.3972 128.893 63.0544 128.363 67.0654C127.834 71.0765 124.177 73.8856 120.166 73.3559C116.155 72.8261 113.345 69.1689 113.875 65.1579C114.405 61.1468 118.062 58.3378 122.073 58.8675Z" fill="#403955"/>
<path d="M103.099 68.8885C107.11 69.4182 109.919 73.0755 109.389 77.0865C108.86 81.0976 105.202 83.9067 101.191 83.377C97.1804 82.8472 94.371 79.19 94.9007 75.179C95.4305 71.1679 99.0879 68.3588 103.099 68.8885Z" fill="#403955"/>
<path d="M95.1136 103.103C99.1246 103.633 101.934 107.29 101.404 111.301C100.874 115.312 97.2169 118.121 93.2058 117.592C89.1948 117.062 86.3857 113.405 86.9154 109.394C87.4452 105.383 91.1025 102.574 95.1136 103.103Z" fill="#403955"/>
<path d="M148.729 78.1267C152.74 78.6564 155.549 82.3137 155.019 86.3247C154.49 90.3358 150.833 93.1449 146.822 92.6152C142.811 92.0854 140.001 88.4283 140.531 84.4172C141.061 80.4062 144.718 77.597 148.729 78.1267Z" fill="#403955"/>
<path d="M141.356 99.4831C145.367 100.013 148.176 103.67 147.646 107.681C147.116 111.692 143.459 114.501 139.448 113.972C135.437 113.442 132.628 109.785 133.158 105.774C133.687 101.763 137.345 98.9534 141.356 99.4831Z" fill="#403955"/>
<path d="M133.907 121.058C137.918 121.588 140.727 125.245 140.198 129.256C139.668 133.267 136.011 136.076 132 135.546C127.989 135.017 125.18 131.359 125.709 127.348C126.239 123.337 129.896 120.528 133.907 121.058Z" fill="#403955"/>
<path d="M155.686 117.298C154.132 113.545 155.931 109.28 159.635 107.749C163.388 106.195 167.654 107.993 169.184 111.697C170.715 115.402 168.94 119.716 165.236 121.247C161.482 122.801 157.217 121.003 155.686 117.298Z" fill="#403955"/>
</svg>
