<svg width="163" height="95" viewBox="0 0 163 95" fill="none" xmlns="http://www.w3.org/2000/svg">
<path d="M35.6558 9.53741C35.6558 9.53741 37.802 70.7487 37.802 73.4409C37.802 82.0384 53.9049 85.7848 54.4509 72.9076C54.5271 70.9773 53.9176 9.00405 53.9176 9.00405C53.9176 9.00405 60.9023 1.48596 56.5972 0.952583C52.292 0.419207 27.071 0.419232 29.2172 2.56543C31.3634 4.71164 35.6558 9.55012 35.6558 9.55012V9.53741Z" fill="#FCFDFF"/>
<path d="M68.421 9.53741C68.421 9.53741 70.5672 70.7487 70.5672 73.4409C70.5672 82.0384 86.67 85.7848 87.2161 72.9076C87.2923 70.9773 86.6827 9.00405 86.6827 9.00405C86.6827 9.00405 93.6674 1.48596 89.3623 0.952583C85.0572 0.419207 59.8361 0.419232 61.9823 2.56543C64.1285 4.71164 68.421 9.55012 68.421 9.55012V9.53741Z" fill="#FCFDFF"/>
<path d="M103.127 9.53741C103.127 9.53741 105.274 70.7487 105.274 73.4409C105.274 82.0384 121.377 85.7848 121.923 72.9076C121.999 70.9773 121.389 9.00405 121.389 9.00405C121.389 9.00405 128.374 1.48596 124.069 0.952583C119.764 0.419207 94.5427 0.419232 96.6889 2.56543C98.8351 4.71164 103.127 9.55012 103.127 9.55012V9.53741Z" fill="#FCFDFF"/>
<path d="M9.88913 7.39112C9.88913 7.39112 12.0354 80.4128 10.9686 82.0257C9.90188 83.6385 -5.13424 94.9155 1.83774 94.9155C8.80973 94.9155 36.2023 95.4489 37.2818 93.8361C38.3612 92.2233 27.6176 82.0257 27.6176 82.0257C27.6176 82.0257 26.5381 6.85772 24.938 5.77827C23.3379 4.69882 9.36847 4.69884 9.90184 7.39112H9.88913Z" fill="#3E3147"/>
<path d="M134.661 7.39112C134.661 7.39112 136.807 80.4128 135.74 82.0257C134.673 83.6385 119.637 94.9155 126.609 94.9155C133.581 94.9155 160.974 95.4489 162.053 93.8361C163.133 92.2233 152.389 82.0257 152.389 82.0257C152.389 82.0257 151.31 6.85772 149.709 5.77827C148.109 4.69882 134.14 4.69884 134.673 7.39112H134.661Z" fill="#3E3147"/>
<path d="M39.8468 22.7193C39.8468 22.7193 51.0603 20.5985 51.2762 22.0843C51.4921 23.5702 50.7047 69.631 50.8571 72.2471C51.073 76.0569 46.4124 80.0826 43.0216 76.2728C39.9229 72.7931 40.9008 64.2083 40.0626 54.8996C39.2245 45.5909 39.2118 22.3002 39.8468 22.732V22.7193Z" fill="#C0E8D5"/>
<path d="M72.8653 22.5035C72.8653 22.5035 84.0789 20.3827 84.2948 21.8685C84.5107 23.3544 83.7233 69.4152 83.8757 72.0312C84.0916 75.8411 79.4309 79.8668 76.0402 76.0569C72.9415 72.5773 73.9193 63.9925 73.0812 54.6838C72.243 45.3751 72.2303 22.0843 72.8653 22.5161V22.5035Z" fill="#B0589C"/>
<path d="M108.208 21.8682C108.208 21.8682 119.421 19.7474 119.637 21.2333C119.853 22.7191 119.066 68.7799 119.218 71.396C119.434 75.2058 114.773 79.2315 111.382 75.4217C108.284 71.942 109.262 63.3572 108.423 54.0485C107.585 44.7399 107.573 21.4491 108.208 21.8809V21.8682Z" fill="#FFB300"/>
<path d="M12.1111 28.2184C12.1111 28.2184 150.903 24.5609 150.903 27.2532C150.903 29.9455 150.103 42.2893 150.103 42.2893C150.103 42.2893 15.7559 43.9021 13.3557 43.3688C10.9555 42.8354 12.1111 28.231 12.1111 28.231V28.2184Z" fill="#3E3147"/>
<path d="M18.5761 39.4442C16.1886 39.4442 14.2329 37.5012 14.2329 35.101C14.2329 32.7008 16.1759 30.7578 18.5761 30.7578C20.9763 30.7578 22.9193 32.7008 22.9193 35.101C22.9193 37.5012 20.9763 39.4442 18.5761 39.4442ZM18.5761 32.0278C16.8871 32.0278 15.5029 33.3993 15.5029 35.101C15.5029 36.8027 16.8744 38.1742 18.5761 38.1742C20.2778 38.1742 21.6493 36.8027 21.6493 35.101C21.6493 33.3993 20.2778 32.0278 18.5761 32.0278Z" fill="#FCFDFF"/>
<path d="M143.03 37.7426C140.642 37.7426 138.687 35.7995 138.687 33.3993C138.687 30.9991 140.63 29.0562 143.03 29.0562C145.43 29.0562 147.373 30.9991 147.373 33.3993C147.373 35.7995 145.43 37.7426 143.03 37.7426ZM143.03 30.3388C141.341 30.3388 139.956 31.7103 139.956 33.412C139.956 35.1138 141.328 36.4853 143.03 36.4853C144.731 36.4853 146.103 35.1138 146.103 33.412C146.103 31.7103 144.731 30.3388 143.03 30.3388Z" fill="#FCFDFF"/>
<path d="M98.7342 31.3677C98.4421 31.3677 98.1882 31.1645 98.112 30.8724C98.0358 30.5295 98.2517 30.1866 98.5946 30.1104C98.747 30.0723 102.442 29.2341 104.551 29.831C104.893 29.9326 105.084 30.2755 104.982 30.6184C104.881 30.9612 104.525 31.1518 104.195 31.0502C102.392 30.5422 98.8993 31.3295 98.8739 31.3422C98.8231 31.3422 98.7723 31.3549 98.7342 31.3549V31.3677Z" fill="#FCFDFF"/>
<path d="M87.7357 32.2187C87.4436 32.2187 87.1896 32.0155 87.1134 31.7234C87.0372 31.3805 87.2531 31.0376 87.596 30.9614C87.7483 30.9233 91.4439 30.0852 93.552 30.6821C93.8949 30.7837 94.0854 31.1266 93.9838 31.4694C93.8822 31.7996 93.5393 32.0028 93.1964 31.9012C91.3931 31.3932 87.9008 32.1806 87.8754 32.1933C87.8246 32.1933 87.7738 32.206 87.7357 32.206V32.2187Z" fill="#FCFDFF"/>
<path d="M83.2284 35.8762C82.9363 35.8762 82.6823 35.673 82.6061 35.3809C82.5299 35.0381 82.7458 34.6952 83.0887 34.619C83.2411 34.5809 86.9366 33.7427 89.0447 34.3523C89.3876 34.4539 89.5781 34.7968 89.4765 35.1397C89.375 35.4698 89.0321 35.6731 88.6892 35.5715C87.1907 35.1524 84.346 35.6349 83.3681 35.8635C83.3173 35.8635 83.2665 35.8762 83.2284 35.8762Z" fill="#FCFDFF"/>
<path d="M75.6087 33.0566C75.3167 33.0566 75.0627 32.8534 74.9865 32.5613C74.9103 32.2185 75.1262 31.8755 75.4691 31.7993C75.6215 31.7612 79.317 30.9231 81.4251 31.52C81.768 31.6216 81.9585 31.9645 81.8569 32.3073C81.7553 32.6502 81.3997 32.8407 81.0696 32.7392C79.2662 32.2312 75.7739 33.0185 75.7485 33.0312C75.6977 33.0312 75.6468 33.0439 75.6087 33.0439V33.0566Z" fill="#FCFDFF"/>
<path d="M103.522 35.5965C103.23 35.5965 102.976 35.3933 102.9 35.1012C102.823 34.7583 103.039 34.4154 103.382 34.3392C103.535 34.3011 107.23 33.4629 109.338 34.0725C109.681 34.1741 109.872 34.517 109.77 34.8599C109.668 35.1901 109.325 35.3932 108.983 35.2916C107.497 34.8725 104.639 35.3552 103.662 35.5838C103.611 35.5838 103.56 35.5965 103.522 35.5965Z" fill="#FCFDFF"/>
<path d="M110.291 32.7771C109.999 32.7771 109.745 32.5739 109.669 32.2818C109.592 31.9389 109.808 31.5961 110.151 31.5199C110.304 31.4818 113.999 30.6436 116.107 31.2532C116.45 31.3548 116.641 31.6976 116.539 32.0405C116.437 32.3707 116.095 32.5739 115.752 32.4723C114.266 32.0533 111.408 32.5358 110.431 32.7644C110.38 32.7644 110.329 32.7771 110.291 32.7771Z" fill="#FCFDFF"/>
<path d="M93.9461 36.4475C93.6541 36.4475 93.4001 36.2443 93.3239 35.9522C93.2477 35.6093 93.4636 35.2665 93.8065 35.1903C93.9589 35.1522 97.6544 34.314 99.7625 34.9236C100.105 35.0252 100.296 35.3681 100.194 35.7109C100.093 36.0411 99.7498 36.2444 99.407 36.1428C97.9211 35.7237 95.0638 36.2062 94.0859 36.4348C94.0351 36.4348 93.9842 36.4475 93.9461 36.4475Z" fill="#FCFDFF"/>
<path d="M149.467 75.6C149.467 75.6 149.353 75.6 149.289 75.5746C148.947 75.473 148.756 75.1301 148.858 74.7873C149.366 72.9966 148.578 69.5043 148.566 69.4662C148.489 69.1233 148.705 68.7805 149.048 68.7043C149.391 68.6281 149.734 68.8439 149.81 69.1868C149.848 69.3392 150.686 73.0347 150.09 75.1428C150.013 75.4222 149.759 75.6 149.48 75.6H149.467Z" fill="#FCFDFF"/>
<path d="M148.63 64.6025C148.63 64.6025 148.516 64.6025 148.452 64.5771C148.109 64.4755 147.919 64.1326 148.02 63.7897C148.528 61.9991 147.741 58.5067 147.728 58.4686C147.652 58.1258 147.868 57.7829 148.211 57.7067C148.554 57.6305 148.897 57.8464 148.973 58.1893C149.011 58.3417 149.849 62.0372 149.252 64.1453C149.176 64.4247 148.922 64.6025 148.643 64.6025H148.63Z" fill="#FCFDFF"/>
<path d="M144.96 60.0937C144.96 60.0937 144.846 60.0937 144.783 60.0683C144.44 59.9667 144.249 59.6238 144.351 59.2809C144.77 57.7951 144.287 54.9377 144.059 53.9598C143.983 53.617 144.198 53.2741 144.541 53.1979C144.897 53.1217 145.227 53.3376 145.303 53.6805C145.341 53.8329 146.18 57.5284 145.57 59.6365C145.494 59.9159 145.24 60.0937 144.96 60.0937Z" fill="#FCFDFF"/>
<path d="M147.78 52.4868C147.78 52.4868 147.665 52.4867 147.602 52.4613C147.259 52.3597 147.069 52.0169 147.17 51.674C147.678 49.8834 146.891 46.391 146.878 46.3529C146.802 46.01 147.018 45.6672 147.361 45.591C147.703 45.5148 148.046 45.7307 148.123 46.0736C148.161 46.226 148.999 49.9215 148.402 52.0296C148.326 52.309 148.072 52.4868 147.792 52.4868H147.78Z" fill="#FCFDFF"/>
<path d="M144.401 70.8124C144.401 70.8124 144.287 70.8124 144.224 70.787C143.881 70.6854 143.69 70.3425 143.792 69.9997C144.211 68.5138 143.728 65.6565 143.5 64.6786C143.423 64.3357 143.639 63.9929 143.982 63.9167C144.325 63.8405 144.668 64.0564 144.744 64.3992C144.782 64.5516 145.62 68.2472 145.011 70.3553C144.935 70.6347 144.681 70.8124 144.401 70.8124Z" fill="#FCFDFF"/>
<path d="M24.061 77.1874C24.061 77.1874 23.9467 77.1874 23.8832 77.162C23.5403 77.0604 23.3499 76.7175 23.4515 76.3747C23.9595 74.584 23.172 71.0917 23.1593 71.0536C23.0831 70.7107 23.299 70.3679 23.6419 70.2917C23.9848 70.2155 24.3277 70.4313 24.4039 70.7742C24.442 70.9266 25.2802 74.6221 24.6833 76.7302C24.6071 77.0096 24.3531 77.1874 24.0737 77.1874H24.061Z" fill="#FCFDFF"/>
<path d="M23.2235 66.1894C23.2235 66.1894 23.1093 66.1894 23.0458 66.164C22.7029 66.0625 22.5124 65.7195 22.614 65.3766C23.122 63.586 22.3346 60.0936 22.3219 60.0556C22.2457 59.7127 22.4616 59.3698 22.8045 59.2936C23.1474 59.2174 23.4903 59.4333 23.5665 59.7762C23.6046 59.9286 24.4428 63.6241 23.8459 65.7322C23.7697 66.0116 23.5156 66.1894 23.2363 66.1894H23.2235Z" fill="#FCFDFF"/>
<path d="M19.5527 61.6806C19.5527 61.6806 19.4384 61.6806 19.3749 61.6552C19.032 61.5536 18.8415 61.2107 18.9431 60.8678C19.3622 59.382 18.8796 56.5246 18.651 55.5468C18.5748 55.2039 18.7907 54.861 19.1336 54.7848C19.4765 54.7086 19.8194 54.9245 19.8956 55.2674C19.9337 55.4198 20.7718 59.1153 20.1623 61.2234C20.0861 61.5028 19.8321 61.6806 19.5527 61.6806Z" fill="#FCFDFF"/>
<path d="M22.3725 54.0742C22.3725 54.0742 22.2582 54.0741 22.1947 54.0487C21.8518 53.9471 21.6613 53.6043 21.7629 53.2614C22.2709 51.4708 21.4836 47.9784 21.4709 47.9403C21.3947 47.5974 21.6105 47.2546 21.9534 47.1784C22.2963 47.1022 22.6392 47.3181 22.7154 47.661C22.7535 47.8134 23.5916 51.5089 22.9947 53.617C22.9185 53.8964 22.6646 54.0742 22.3852 54.0742H22.3725Z" fill="#FCFDFF"/>
<path d="M18.9941 72.3998C18.9941 72.3998 18.8798 72.3998 18.8163 72.3744C18.4734 72.2728 18.2829 71.9299 18.3845 71.5871C18.8036 70.1012 18.321 67.2439 18.0924 66.266C18.0162 65.9231 18.2321 65.5803 18.575 65.5041C18.9179 65.4279 19.2608 65.6438 19.337 65.9866C19.3751 66.139 20.2133 69.8346 19.6037 71.9427C19.5275 72.2221 19.2735 72.3998 18.9941 72.3998Z" fill="#FCFDFF"/>
<path d="M44.762 5.68909C39.0219 5.68909 33.9421 4.10171 33.6246 4.00012C33.2944 3.89852 33.104 3.53023 33.2056 3.20005C33.3072 2.86986 33.6755 2.67935 34.0057 2.78095C34.12 2.81904 45.5113 6.36221 53.1183 2.80637C53.4358 2.65398 53.8167 2.80636 53.9691 3.11114C54.1215 3.41593 53.9691 3.80959 53.6643 3.96198C50.9086 5.24462 47.7464 5.67645 44.762 5.67645V5.68909Z" fill="#FCFDFF"/>
<path d="M78.3519 5.68909C72.6117 5.68909 67.5319 4.10171 67.2145 4.00012C66.8843 3.89852 66.6938 3.53023 66.7954 3.20005C66.897 2.86986 67.2652 2.67935 67.5954 2.78095C67.7097 2.81904 79.1012 6.36221 86.7081 2.80637C87.0256 2.65398 87.4066 2.80636 87.559 3.11114C87.7114 3.41593 87.559 3.80959 87.2542 3.96198C84.4984 5.24462 81.3362 5.67645 78.3519 5.67645V5.68909Z" fill="#FCFDFF"/>
<path d="M112.221 6.22285C106.481 6.22285 101.401 4.6354 101.084 4.53381C100.753 4.43221 100.563 4.06392 100.665 3.73374C100.766 3.40355 101.134 3.21304 101.465 3.31464C101.579 3.35273 112.97 6.8959 120.577 3.34006C120.895 3.18767 121.276 3.34005 121.428 3.64483C121.58 3.94962 121.428 4.34328 121.123 4.49567C118.368 5.77832 115.205 6.21014 112.221 6.21014V6.22285Z" fill="#FCFDFF"/>
</svg>
